<?xml version="1.0" encoding="UTF-8"?>
<svg xmlns="http://www.w3.org/2000/svg" version="1.1" width="150" height="150" viewBox="0 0 150 150"><rect x="0" y="0" width="150" height="150" fill="#ffffff"/><g transform="scale(4.054)"><g transform="translate(0,0)"><path fill-rule="evenodd" d="M10 0L10 2L11 2L11 0ZM12 0L12 1L13 1L13 2L12 2L12 4L13 4L13 3L14 3L14 4L15 4L15 5L17 5L17 6L16 6L16 9L12 9L12 7L13 7L13 5L11 5L11 6L10 6L10 4L11 4L11 3L8 3L8 4L9 4L9 5L8 5L8 7L9 7L9 8L6 8L6 9L5 9L5 8L0 8L0 12L1 12L1 14L0 14L0 15L1 15L1 16L0 16L0 18L1 18L1 19L2 19L2 18L3 18L3 15L4 15L4 17L5 17L5 18L4 18L4 19L3 19L3 20L4 20L4 19L5 19L5 20L6 20L6 21L5 21L5 22L6 22L6 23L7 23L7 24L6 24L6 25L5 25L5 24L4 24L4 25L3 25L3 23L4 23L4 22L3 22L3 21L1 21L1 20L0 20L0 24L1 24L1 25L0 25L0 29L1 29L1 25L2 25L2 27L3 27L3 28L2 28L2 29L3 29L3 28L4 28L4 29L8 29L8 31L9 31L9 32L8 32L8 37L9 37L9 36L10 36L10 35L11 35L11 34L10 34L10 33L12 33L12 34L13 34L13 35L12 35L12 37L13 37L13 36L14 36L14 37L18 37L18 36L14 36L14 35L17 35L17 34L15 34L15 33L16 33L16 32L15 32L15 31L16 31L16 30L15 30L15 31L14 31L14 32L15 32L15 33L12 33L12 31L13 31L13 30L11 30L11 31L9 31L9 30L10 30L10 28L9 28L9 27L10 27L10 26L9 26L9 24L10 24L10 23L11 23L11 25L12 25L12 26L13 26L13 27L12 27L12 29L13 29L13 28L14 28L14 29L15 29L15 28L14 28L14 27L16 27L16 26L15 26L15 25L17 25L17 27L18 27L18 26L20 26L20 27L19 27L19 28L20 28L20 27L21 27L21 29L18 29L18 28L16 28L16 29L17 29L17 31L18 31L18 32L17 32L17 33L18 33L18 35L19 35L19 34L20 34L20 33L18 33L18 32L20 32L20 31L18 31L18 30L22 30L22 29L23 29L23 30L24 30L24 31L23 31L23 34L24 34L24 33L26 33L26 32L24 32L24 31L25 31L25 30L26 30L26 31L27 31L27 30L28 30L28 32L27 32L27 36L25 36L25 35L26 35L26 34L25 34L25 35L24 35L24 36L23 36L23 37L28 37L28 36L30 36L30 37L32 37L32 36L33 36L33 37L37 37L37 32L36 32L36 33L35 33L35 35L36 35L36 36L33 36L33 35L32 35L32 34L34 34L34 32L33 32L33 31L37 31L37 30L36 30L36 29L35 29L35 28L36 28L36 27L37 27L37 26L36 26L36 27L35 27L35 24L34 24L34 23L37 23L37 22L34 22L34 21L36 21L36 20L34 20L34 19L31 19L31 18L32 18L32 17L36 17L36 15L37 15L37 14L34 14L34 13L36 13L36 12L37 12L37 10L34 10L34 8L33 8L33 11L35 11L35 12L34 12L34 13L33 13L33 12L32 12L32 13L33 13L33 15L35 15L35 16L32 16L32 17L31 17L31 16L29 16L29 15L28 15L28 14L30 14L30 13L31 13L31 10L32 10L32 8L31 8L31 9L30 9L30 8L29 8L29 5L27 5L27 6L26 6L26 5L25 5L25 6L24 6L24 7L23 7L23 5L24 5L24 4L26 4L26 3L25 3L25 2L26 2L26 1L27 1L27 2L28 2L28 1L27 1L27 0L25 0L25 2L24 2L24 3L23 3L23 1L24 1L24 0L23 0L23 1L22 1L22 2L21 2L21 0L18 0L18 1L20 1L20 2L21 2L21 3L22 3L22 4L23 4L23 5L22 5L22 7L21 7L21 6L20 6L20 8L22 8L22 7L23 7L23 8L24 8L24 9L23 9L23 10L24 10L24 9L25 9L25 6L26 6L26 7L27 7L27 6L28 6L28 8L29 8L29 9L28 9L28 10L26 10L26 12L25 12L25 13L28 13L28 14L27 14L27 15L26 15L26 14L24 14L24 13L22 13L22 14L24 14L24 15L26 15L26 16L25 16L25 18L26 18L26 17L27 17L27 15L28 15L28 16L29 16L29 17L28 17L28 18L27 18L27 20L25 20L25 19L24 19L24 20L22 20L22 19L19 19L19 18L22 18L22 17L21 17L21 16L22 16L22 15L20 15L20 17L19 17L19 18L16 18L16 17L12 17L12 15L13 15L13 14L10 14L10 13L11 13L11 11L10 11L10 10L11 10L11 9L12 9L12 10L13 10L13 11L12 11L12 13L13 13L13 12L14 12L14 13L15 13L15 14L17 14L17 13L18 13L18 14L21 14L21 13L20 13L20 12L19 12L19 10L20 10L20 11L21 11L21 12L22 12L22 11L21 11L21 10L22 10L22 9L19 9L19 10L18 10L18 12L17 12L17 13L16 13L16 11L17 11L17 10L16 10L16 9L18 9L18 8L17 8L17 6L18 6L18 7L19 7L19 6L18 6L18 4L16 4L16 2L17 2L17 1L16 1L16 0ZM8 1L8 2L9 2L9 1ZM14 2L14 3L15 3L15 2ZM18 2L18 3L19 3L19 2ZM27 3L27 4L28 4L28 3ZM19 4L19 5L21 5L21 4ZM9 6L9 7L10 7L10 6ZM11 6L11 7L12 7L12 6ZM14 6L14 8L15 8L15 6ZM10 8L10 9L11 9L11 8ZM26 8L26 9L27 9L27 8ZM35 8L35 9L36 9L36 8ZM3 9L3 10L1 10L1 11L2 11L2 14L1 14L1 15L2 15L2 14L4 14L4 15L5 15L5 14L7 14L7 15L6 15L6 16L9 16L9 15L8 15L8 14L9 14L9 10L8 10L8 11L6 11L6 12L5 12L5 13L4 13L4 12L3 12L3 10L4 10L4 11L5 11L5 9ZM6 9L6 10L7 10L7 9ZM29 9L29 10L28 10L28 11L30 11L30 9ZM14 11L14 12L15 12L15 11ZM6 12L6 13L7 13L7 14L8 14L8 13L7 13L7 12ZM18 12L18 13L19 13L19 12ZM31 14L31 15L32 15L32 14ZM10 15L10 18L11 18L11 20L10 20L10 19L9 19L9 20L8 20L8 19L6 19L6 18L8 18L8 17L6 17L6 18L5 18L5 19L6 19L6 20L8 20L8 21L6 21L6 22L7 22L7 23L8 23L8 24L7 24L7 25L6 25L6 26L7 26L7 25L8 25L8 24L9 24L9 22L8 22L8 21L9 21L9 20L10 20L10 21L11 21L11 22L13 22L13 23L12 23L12 25L15 25L15 24L18 24L18 25L21 25L21 23L20 23L20 22L19 22L19 20L18 20L18 19L17 19L17 20L18 20L18 21L17 21L17 22L19 22L19 23L15 23L15 22L16 22L16 20L15 20L15 19L14 19L14 20L13 20L13 21L12 21L12 19L13 19L13 18L12 18L12 17L11 17L11 15ZM14 15L14 16L15 16L15 15ZM16 15L16 16L17 16L17 17L18 17L18 16L17 16L17 15ZM1 16L1 17L2 17L2 16ZM23 17L23 18L24 18L24 17ZM30 17L30 18L31 18L31 17ZM35 18L35 19L37 19L37 18ZM14 20L14 21L15 21L15 20ZM20 20L20 21L21 21L21 20ZM28 20L28 21L26 21L26 22L28 22L28 23L27 23L27 24L26 24L26 23L24 23L24 22L25 22L25 21L24 21L24 22L23 22L23 25L22 25L22 26L23 26L23 27L22 27L22 28L23 28L23 29L24 29L24 30L25 30L25 28L26 28L26 30L27 30L27 26L28 26L28 25L27 25L27 24L28 24L28 23L29 23L29 28L31 28L31 27L30 27L30 26L31 26L31 25L32 25L32 28L33 28L33 25L34 25L34 24L33 24L33 25L32 25L32 23L33 23L33 21L32 21L32 20L31 20L31 21L29 21L29 20ZM28 21L28 22L29 22L29 23L30 23L30 25L31 25L31 23L32 23L32 21L31 21L31 23L30 23L30 22L29 22L29 21ZM1 22L1 23L2 23L2 22ZM14 23L14 24L15 24L15 23ZM25 24L25 25L26 25L26 24ZM36 24L36 25L37 25L37 24ZM23 25L23 26L24 26L24 25ZM3 26L3 27L4 27L4 28L8 28L8 27L9 27L9 26L8 26L8 27L4 27L4 26ZM25 26L25 27L23 27L23 28L25 28L25 27L26 27L26 26ZM34 27L34 28L35 28L35 27ZM29 29L29 32L32 32L32 29ZM34 29L34 30L35 30L35 29ZM30 30L30 31L31 31L31 30ZM21 31L21 32L22 32L22 31ZM21 33L21 34L22 34L22 33ZM29 33L29 34L28 34L28 35L30 35L30 36L31 36L31 34L30 34L30 33ZM9 34L9 35L10 35L10 34ZM20 35L20 36L19 36L19 37L20 37L20 36L22 36L22 35ZM0 0L0 7L7 7L7 0ZM1 1L1 6L6 6L6 1ZM2 2L2 5L5 5L5 2ZM30 0L30 7L37 7L37 0ZM31 1L31 6L36 6L36 1ZM32 2L32 5L35 5L35 2ZM0 30L0 37L7 37L7 30ZM1 31L1 36L6 36L6 31ZM2 32L2 35L5 35L5 32Z" fill="#000000"/></g></g></svg>
