<?xml version="1.0" encoding="UTF-8"?>
<svg xmlns="http://www.w3.org/2000/svg" version="1.1" width="150" height="150" viewBox="0 0 150 150"><rect x="0" y="0" width="150" height="150" fill="#ffffff"/><g transform="scale(3.659)"><g transform="translate(0,0)"><path fill-rule="evenodd" d="M9 0L9 1L8 1L8 2L10 2L10 3L12 3L12 4L13 4L13 6L12 6L12 8L11 8L11 9L12 9L12 8L13 8L13 10L11 10L11 11L9 11L9 10L10 10L10 8L6 8L6 9L5 9L5 8L0 8L0 9L2 9L2 12L1 12L1 11L0 11L0 12L1 12L1 14L0 14L0 15L1 15L1 17L0 17L0 20L1 20L1 17L2 17L2 19L3 19L3 21L2 21L2 24L1 24L1 25L0 25L0 26L1 26L1 28L0 28L0 33L1 33L1 29L2 29L2 31L4 31L4 32L2 32L2 33L5 33L5 32L6 32L6 33L7 33L7 32L6 32L6 31L8 31L8 30L9 30L9 29L10 29L10 30L11 30L11 29L12 29L12 30L13 30L13 31L12 31L12 33L11 33L11 32L10 32L10 31L9 31L9 32L8 32L8 35L9 35L9 34L10 34L10 33L11 33L11 34L12 34L12 35L13 35L13 34L12 34L12 33L14 33L14 32L15 32L15 33L16 33L16 31L18 31L18 32L17 32L17 33L19 33L19 34L18 34L18 35L19 35L19 34L21 34L21 35L20 35L20 36L21 36L21 37L20 37L20 38L17 38L17 37L14 37L14 38L17 38L17 39L16 39L16 40L17 40L17 41L18 41L18 40L17 40L17 39L19 39L19 41L21 41L21 40L22 40L22 41L23 41L23 40L24 40L24 41L27 41L27 40L25 40L25 38L24 38L24 35L23 35L23 34L25 34L25 33L26 33L26 36L25 36L25 37L26 37L26 39L28 39L28 40L29 40L29 41L30 41L30 40L31 40L31 41L32 41L32 40L33 40L33 41L35 41L35 40L34 40L34 39L37 39L37 40L36 40L36 41L37 41L37 40L38 40L38 41L39 41L39 40L40 40L40 39L39 39L39 40L38 40L38 39L37 39L37 38L33 38L33 39L32 39L32 37L39 37L39 38L41 38L41 37L39 37L39 36L40 36L40 35L39 35L39 34L38 34L38 35L37 35L37 33L39 33L39 32L40 32L40 33L41 33L41 31L39 31L39 30L37 30L37 29L34 29L34 27L35 27L35 28L38 28L38 29L39 29L39 28L40 28L40 30L41 30L41 28L40 28L40 27L39 27L39 28L38 28L38 26L39 26L39 25L40 25L40 26L41 26L41 23L40 23L40 22L41 22L41 21L39 21L39 20L38 20L38 19L40 19L40 18L41 18L41 17L40 17L40 16L41 16L41 15L39 15L39 16L38 16L38 15L37 15L37 16L38 16L38 17L36 17L36 14L37 14L37 13L36 13L36 12L35 12L35 11L34 11L34 10L35 10L35 9L36 9L36 10L38 10L38 11L37 11L37 12L38 12L38 13L39 13L39 14L41 14L41 13L40 13L40 10L41 10L41 9L40 9L40 8L39 8L39 9L38 9L38 8L37 8L37 9L36 9L36 8L35 8L35 9L34 9L34 8L33 8L33 6L32 6L32 8L33 8L33 9L30 9L30 8L31 8L31 5L33 5L33 4L31 4L31 5L29 5L29 4L30 4L30 3L27 3L27 2L28 2L28 1L30 1L30 2L31 2L31 1L32 1L32 3L33 3L33 0L31 0L31 1L30 1L30 0L28 0L28 1L26 1L26 3L25 3L25 1L24 1L24 0L19 0L19 1L18 1L18 2L19 2L19 1L21 1L21 2L20 2L20 3L18 3L18 4L20 4L20 5L19 5L19 6L18 6L18 7L19 7L19 8L17 8L17 6L16 6L16 10L14 10L14 9L15 9L15 8L13 8L13 6L14 6L14 7L15 7L15 5L17 5L17 4L16 4L16 3L17 3L17 0L16 0L16 1L15 1L15 2L14 2L14 3L15 3L15 4L13 4L13 3L12 3L12 2L13 2L13 0ZM23 1L23 2L22 2L22 3L20 3L20 4L22 4L22 5L20 5L20 6L19 6L19 7L20 7L20 6L21 6L21 7L22 7L22 8L21 8L21 9L22 9L22 12L23 12L23 13L24 13L24 14L23 14L23 17L24 17L24 16L27 16L27 17L26 17L26 18L25 18L25 20L26 20L26 19L27 19L27 20L30 20L30 21L27 21L27 22L28 22L28 23L27 23L27 24L28 24L28 25L25 25L25 24L26 24L26 21L24 21L24 22L23 22L23 19L24 19L24 18L22 18L22 16L21 16L21 15L20 15L20 14L21 14L21 13L19 13L19 12L21 12L21 11L20 11L20 9L18 9L18 11L19 11L19 12L17 12L17 13L16 13L16 12L15 12L15 11L14 11L14 12L13 12L13 11L12 11L12 13L11 13L11 15L10 15L10 16L9 16L9 18L8 18L8 16L7 16L7 15L6 15L6 14L8 14L8 13L6 13L6 14L5 14L5 13L4 13L4 12L5 12L5 11L6 11L6 12L8 12L8 11L6 11L6 10L8 10L8 9L6 9L6 10L4 10L4 9L3 9L3 10L4 10L4 12L2 12L2 13L4 13L4 14L2 14L2 16L3 16L3 19L4 19L4 17L5 17L5 16L3 16L3 15L4 15L4 14L5 14L5 15L6 15L6 16L7 16L7 17L6 17L6 18L8 18L8 20L7 20L7 19L6 19L6 20L4 20L4 21L3 21L3 23L4 23L4 26L7 26L7 25L5 25L5 24L8 24L8 25L9 25L9 26L8 26L8 27L5 27L5 28L7 28L7 29L6 29L6 30L5 30L5 31L6 31L6 30L8 30L8 29L9 29L9 28L10 28L10 27L11 27L11 28L12 28L12 29L13 29L13 30L14 30L14 31L13 31L13 32L14 32L14 31L15 31L15 29L14 29L14 28L15 28L15 27L14 27L14 28L12 28L12 27L13 27L13 24L14 24L14 23L12 23L12 26L10 26L10 25L11 25L11 22L13 22L13 21L15 21L15 20L14 20L14 19L15 19L15 17L13 17L13 16L15 16L15 15L14 15L14 14L15 14L15 13L16 13L16 14L17 14L17 15L16 15L16 17L17 17L17 18L16 18L16 21L17 21L17 22L15 22L15 26L16 26L16 28L17 28L17 29L16 29L16 30L18 30L18 31L19 31L19 33L21 33L21 34L23 34L23 33L24 33L24 32L23 32L23 33L22 33L22 32L21 32L21 31L20 31L20 30L21 30L21 29L22 29L22 28L23 28L23 29L24 29L24 30L23 30L23 31L25 31L25 32L27 32L27 34L28 34L28 31L29 31L29 32L30 32L30 33L31 33L31 32L33 32L33 31L34 31L34 32L37 32L37 31L34 31L34 30L33 30L33 31L32 31L32 30L30 30L30 31L29 31L29 28L30 28L30 29L31 29L31 28L32 28L32 29L33 29L33 27L34 27L34 26L33 26L33 25L35 25L35 26L36 26L36 25L37 25L37 24L40 24L40 23L38 23L38 22L39 22L39 21L38 21L38 20L36 20L36 19L37 19L37 18L36 18L36 17L35 17L35 16L33 16L33 15L32 15L32 14L31 14L31 12L34 12L34 13L35 13L35 12L34 12L34 11L33 11L33 10L30 10L30 9L29 9L29 8L30 8L30 6L29 6L29 5L28 5L28 6L27 6L27 8L28 8L28 9L27 9L27 10L28 10L28 11L29 11L29 12L27 12L27 11L25 11L25 12L27 12L27 13L24 13L24 12L23 12L23 11L24 11L24 10L25 10L25 8L26 8L26 5L27 5L27 4L24 4L24 1ZM8 3L8 4L9 4L9 3ZM10 4L10 7L11 7L11 4ZM23 4L23 5L24 5L24 4ZM8 5L8 7L9 7L9 5ZM22 6L22 7L23 7L23 6ZM24 6L24 8L25 8L25 6ZM28 6L28 7L29 7L29 6ZM22 8L22 9L23 9L23 8ZM39 9L39 10L40 10L40 9ZM30 11L30 12L29 12L29 15L30 15L30 16L29 16L29 17L30 17L30 18L31 18L31 17L30 17L30 16L32 16L32 15L30 15L30 12L31 12L31 11ZM38 11L38 12L39 12L39 11ZM9 12L9 14L10 14L10 12ZM14 12L14 13L15 13L15 12ZM12 13L12 14L13 14L13 13ZM18 13L18 16L17 16L17 17L19 17L19 18L18 18L18 19L19 19L19 20L18 20L18 21L19 21L19 20L20 20L20 19L21 19L21 20L22 20L22 18L21 18L21 17L19 17L19 13ZM24 14L24 15L28 15L28 14ZM34 14L34 15L35 15L35 14ZM12 15L12 16L13 16L13 15ZM10 16L10 19L11 19L11 20L8 20L8 21L10 21L10 22L6 22L6 23L10 23L10 22L11 22L11 20L12 20L12 21L13 21L13 19L11 19L11 18L12 18L12 17L11 17L11 16ZM32 17L32 18L33 18L33 20L32 20L32 21L30 21L30 23L31 23L31 25L30 25L30 24L29 24L29 25L30 25L30 26L29 26L29 27L31 27L31 26L32 26L32 24L33 24L33 23L34 23L34 22L35 22L35 23L36 23L36 24L37 24L37 23L36 23L36 22L38 22L38 21L34 21L34 20L35 20L35 19L34 19L34 17ZM39 17L39 18L40 18L40 17ZM19 18L19 19L20 19L20 18ZM27 18L27 19L28 19L28 18ZM6 20L6 21L7 21L7 20ZM0 21L0 22L1 22L1 21ZM4 21L4 23L5 23L5 21ZM20 21L20 22L18 22L18 24L17 24L17 23L16 23L16 24L17 24L17 28L19 28L19 27L18 27L18 26L20 26L20 27L21 27L21 28L20 28L20 29L21 29L21 28L22 28L22 27L21 27L21 26L22 26L22 25L23 25L23 26L24 26L24 27L23 27L23 28L24 28L24 29L25 29L25 31L28 31L28 30L26 30L26 29L27 29L27 28L28 28L28 26L25 26L25 25L24 25L24 24L25 24L25 23L24 23L24 24L23 24L23 23L20 23L20 22L22 22L22 21ZM31 22L31 23L33 23L33 22ZM9 24L9 25L10 25L10 24ZM18 24L18 25L19 25L19 24ZM20 24L20 25L22 25L22 24ZM3 27L3 28L2 28L2 29L3 29L3 28L4 28L4 27ZM8 27L8 28L9 28L9 27ZM25 27L25 28L27 28L27 27ZM18 29L18 30L19 30L19 29ZM30 31L30 32L31 32L31 31ZM38 31L38 32L39 32L39 31ZM9 32L9 33L10 33L10 32ZM33 33L33 36L36 36L36 33ZM15 34L15 35L14 35L14 36L15 36L15 35L16 35L16 36L17 36L17 35L16 35L16 34ZM29 34L29 36L28 36L28 37L27 37L27 38L28 38L28 37L29 37L29 40L30 40L30 39L31 39L31 40L32 40L32 39L31 39L31 38L30 38L30 37L32 37L32 36L31 36L31 35L30 35L30 34ZM34 34L34 35L35 35L35 34ZM10 35L10 37L11 37L11 35ZM38 35L38 36L39 36L39 35ZM8 36L8 41L13 41L13 40L12 40L12 39L13 39L13 38L11 38L11 39L9 39L9 36ZM12 36L12 37L13 37L13 36ZM18 36L18 37L19 37L19 36ZM22 36L22 37L21 37L21 38L20 38L20 39L22 39L22 40L23 40L23 39L24 39L24 38L23 38L23 36ZM29 36L29 37L30 37L30 36ZM22 38L22 39L23 39L23 38ZM14 40L14 41L15 41L15 40ZM0 0L0 7L7 7L7 0ZM1 1L1 6L6 6L6 1ZM2 2L2 5L5 5L5 2ZM34 0L34 7L41 7L41 0ZM35 1L35 6L40 6L40 1ZM36 2L36 5L39 5L39 2ZM0 34L0 41L7 41L7 34ZM1 35L1 40L6 40L6 35ZM2 36L2 39L5 39L5 36Z" fill="#000000"/></g></g></svg>
