<?xml version="1.0" encoding="UTF-8"?>
<svg xmlns="http://www.w3.org/2000/svg" version="1.1" width="150" height="150" viewBox="0 0 150 150"><rect x="0" y="0" width="150" height="150" fill="#ffffff"/><g transform="scale(4.545)"><g transform="translate(0,0)"><path fill-rule="evenodd" d="M8 0L8 1L10 1L10 0ZM13 0L13 1L14 1L14 2L11 2L11 4L10 4L10 3L9 3L9 2L8 2L8 5L9 5L9 6L8 6L8 7L9 7L9 8L8 8L8 9L9 9L9 10L10 10L10 9L9 9L9 8L10 8L10 7L11 7L11 8L12 8L12 7L13 7L13 5L14 5L14 7L15 7L15 5L17 5L17 6L16 6L16 8L17 8L17 9L16 9L16 10L17 10L17 11L18 11L18 12L15 12L15 13L14 13L14 9L15 9L15 8L14 8L14 9L13 9L13 11L11 11L11 13L10 13L10 12L9 12L9 11L7 11L7 10L6 10L6 9L7 9L7 8L6 8L6 9L4 9L4 8L0 8L0 11L1 11L1 13L0 13L0 16L1 16L1 19L2 19L2 20L1 20L1 21L0 21L0 22L1 22L1 21L2 21L2 20L3 20L3 21L5 21L5 22L3 22L3 23L1 23L1 24L0 24L0 25L1 25L1 24L3 24L3 25L4 25L4 23L5 23L5 24L6 24L6 25L8 25L8 26L9 26L9 29L8 29L8 33L11 33L11 30L12 30L12 31L13 31L13 30L14 30L14 32L13 32L13 33L20 33L20 32L21 32L21 33L22 33L22 32L21 32L21 28L22 28L22 30L24 30L24 29L28 29L28 30L29 30L29 26L30 26L30 30L31 30L31 31L32 31L32 32L33 32L33 31L32 31L32 29L33 29L33 27L32 27L32 28L31 28L31 26L32 26L32 25L33 25L33 21L32 21L32 20L30 20L30 21L29 21L29 22L31 22L31 21L32 21L32 25L31 25L31 26L30 26L30 25L29 25L29 23L28 23L28 22L27 22L27 21L26 21L26 20L25 20L25 21L23 21L23 20L21 20L21 21L20 21L20 20L19 20L19 19L18 19L18 17L19 17L19 16L18 16L18 17L17 17L17 19L16 19L16 15L15 15L15 16L13 16L13 14L12 14L12 12L13 12L13 13L14 13L14 14L17 14L17 15L18 15L18 12L20 12L20 11L21 11L21 10L22 10L22 13L19 13L19 15L20 15L20 16L21 16L21 17L20 17L20 19L21 19L21 17L22 17L22 18L24 18L24 19L25 19L25 18L24 18L24 17L22 17L22 16L23 16L23 15L22 15L22 13L23 13L23 12L24 12L24 13L26 13L26 12L27 12L27 16L26 16L26 15L25 15L25 17L26 17L26 18L27 18L27 20L29 20L29 19L28 19L28 18L29 18L29 16L30 16L30 17L31 17L31 19L32 19L32 18L33 18L33 17L32 17L32 16L33 16L33 15L32 15L32 16L31 16L31 14L30 14L30 13L29 13L29 12L30 12L30 11L28 11L28 10L27 10L27 9L26 9L26 8L25 8L25 4L24 4L24 7L23 7L23 6L22 6L22 4L23 4L23 3L25 3L25 2L24 2L24 0L23 0L23 1L22 1L22 0L18 0L18 1L17 1L17 0L16 0L16 2L15 2L15 1L14 1L14 0ZM18 1L18 2L17 2L17 3L16 3L16 4L17 4L17 3L18 3L18 4L19 4L19 3L18 3L18 2L20 2L20 1ZM21 1L21 3L20 3L20 5L21 5L21 4L22 4L22 3L23 3L23 2L22 2L22 1ZM12 3L12 5L10 5L10 6L9 6L9 7L10 7L10 6L11 6L11 7L12 7L12 5L13 5L13 3ZM18 5L18 6L17 6L17 7L18 7L18 6L19 6L19 7L20 7L20 6L19 6L19 5ZM21 6L21 8L20 8L20 9L19 9L19 10L18 10L18 11L20 11L20 9L21 9L21 8L22 8L22 9L24 9L24 12L25 12L25 10L26 10L26 9L25 9L25 8L23 8L23 7L22 7L22 6ZM28 8L28 9L29 9L29 10L30 10L30 9L31 9L31 8ZM32 8L32 10L31 10L31 11L32 11L32 12L31 12L31 13L33 13L33 8ZM2 9L2 10L1 10L1 11L2 11L2 13L3 13L3 14L2 14L2 18L3 18L3 19L4 19L4 20L5 20L5 21L6 21L6 22L5 22L5 23L6 23L6 24L7 24L7 23L9 23L9 25L10 25L10 28L11 28L11 27L13 27L13 28L12 28L12 30L13 30L13 29L14 29L14 30L15 30L15 28L16 28L16 30L19 30L19 31L18 31L18 32L20 32L20 29L19 29L19 28L20 28L20 27L21 27L21 26L23 26L23 24L24 24L24 23L23 23L23 22L22 22L22 21L21 21L21 22L22 22L22 23L21 23L21 24L20 24L20 27L19 27L19 28L18 28L18 26L19 26L19 25L17 25L17 28L16 28L16 26L15 26L15 25L14 25L14 24L15 24L15 23L16 23L16 21L17 21L17 24L19 24L19 23L20 23L20 22L18 22L18 21L19 21L19 20L18 20L18 21L17 21L17 20L16 20L16 19L15 19L15 18L14 18L14 17L13 17L13 16L12 16L12 14L9 14L9 12L7 12L7 11L6 11L6 12L7 12L7 13L6 13L6 14L4 14L4 12L3 12L3 11L5 11L5 10L3 10L3 9ZM27 11L27 12L28 12L28 11ZM28 13L28 16L29 16L29 15L30 15L30 14L29 14L29 13ZM3 14L3 15L4 15L4 14ZM6 14L6 15L5 15L5 16L4 16L4 17L7 17L7 18L5 18L5 19L7 19L7 20L6 20L6 21L7 21L7 22L6 22L6 23L7 23L7 22L10 22L10 23L12 23L12 24L11 24L11 25L12 25L12 26L13 26L13 27L14 27L14 28L15 28L15 26L13 26L13 25L12 25L12 24L14 24L14 23L15 23L15 22L13 22L13 21L12 21L12 20L13 20L13 19L14 19L14 20L15 20L15 19L14 19L14 18L13 18L13 17L12 17L12 16L11 16L11 17L10 17L10 16L9 16L9 14ZM20 14L20 15L21 15L21 14ZM6 15L6 16L7 16L7 15ZM8 16L8 17L9 17L9 16ZM11 17L11 18L10 18L10 19L8 19L8 18L7 18L7 19L8 19L8 21L10 21L10 22L12 22L12 21L10 21L10 20L12 20L12 19L11 19L11 18L12 18L12 17ZM25 21L25 23L26 23L26 24L28 24L28 23L26 23L26 21ZM22 23L22 24L23 24L23 23ZM25 25L25 28L28 28L28 25ZM26 26L26 27L27 27L27 26ZM22 27L22 28L23 28L23 27ZM10 29L10 30L9 30L9 31L10 31L10 30L11 30L11 29ZM15 31L15 32L17 32L17 31ZM23 31L23 33L24 33L24 31ZM28 31L28 33L29 33L29 32L30 32L30 33L31 33L31 32L30 32L30 31ZM25 32L25 33L26 33L26 32ZM0 0L0 7L7 7L7 0ZM1 1L1 6L6 6L6 1ZM2 2L2 5L5 5L5 2ZM26 0L26 7L33 7L33 0ZM27 1L27 6L32 6L32 1ZM28 2L28 5L31 5L31 2ZM0 26L0 33L7 33L7 26ZM1 27L1 32L6 32L6 27ZM2 28L2 31L5 31L5 28Z" fill="#000000"/></g></g></svg>
