<?xml version="1.0" encoding="UTF-8"?>
<svg xmlns="http://www.w3.org/2000/svg" version="1.1" width="150" height="150" viewBox="0 0 150 150"><rect x="0" y="0" width="150" height="150" fill="#ffffff"/><g transform="scale(4.545)"><g transform="translate(0,0)"><path fill-rule="evenodd" d="M8 0L8 1L9 1L9 2L8 2L8 5L9 5L9 4L11 4L11 5L10 5L10 10L9 10L9 8L8 8L8 9L7 9L7 8L6 8L6 9L4 9L4 8L0 8L0 9L3 9L3 10L6 10L6 11L7 11L7 12L6 12L6 13L7 13L7 14L5 14L5 12L4 12L4 13L3 13L3 11L2 11L2 10L0 10L0 11L1 11L1 12L0 12L0 13L1 13L1 12L2 12L2 17L3 17L3 15L4 15L4 18L1 18L1 17L0 17L0 19L1 19L1 20L3 20L3 19L4 19L4 18L6 18L6 19L5 19L5 20L6 20L6 21L7 21L7 22L6 22L6 23L5 23L5 24L4 24L4 23L3 23L3 22L2 22L2 23L1 23L1 24L0 24L0 25L1 25L1 24L2 24L2 23L3 23L3 24L4 24L4 25L7 25L7 24L8 24L8 23L9 23L9 24L11 24L11 25L10 25L10 26L9 26L9 25L8 25L8 26L9 26L9 27L11 27L11 26L12 26L12 28L10 28L10 30L11 30L11 31L10 31L10 32L9 32L9 29L8 29L8 33L10 33L10 32L11 32L11 33L14 33L14 32L13 32L13 30L14 30L14 29L12 29L12 28L14 28L14 27L15 27L15 28L16 28L16 29L15 29L15 31L16 31L16 32L17 32L17 33L22 33L22 32L21 32L21 31L20 31L20 32L19 32L19 30L18 30L18 29L19 29L19 28L20 28L20 23L18 23L18 24L17 24L17 21L19 21L19 22L21 22L21 23L22 23L22 24L23 24L23 23L24 23L24 26L23 26L23 25L21 25L21 29L20 29L20 30L21 30L21 29L22 29L22 30L23 30L23 33L24 33L24 32L27 32L27 30L26 30L26 31L24 31L24 29L28 29L28 30L29 30L29 26L30 26L30 30L31 30L31 31L32 31L32 32L33 32L33 31L32 31L32 29L33 29L33 28L32 28L32 27L31 27L31 26L32 26L32 25L33 25L33 21L32 21L32 20L30 20L30 21L29 21L29 22L31 22L31 21L32 21L32 25L31 25L31 26L30 26L30 25L29 25L29 23L27 23L27 24L26 24L26 22L24 22L24 21L25 21L25 20L24 20L24 21L23 21L23 18L24 18L24 16L25 16L25 15L23 15L23 16L22 16L22 15L21 15L21 14L20 14L20 11L19 11L19 16L18 16L18 17L17 17L17 18L16 18L16 16L17 16L17 15L16 15L16 16L12 16L12 14L13 14L13 13L14 13L14 14L17 14L17 13L18 13L18 12L17 12L17 13L15 13L15 12L16 12L16 11L15 11L15 12L14 12L14 11L13 11L13 6L14 6L14 7L15 7L15 8L14 8L14 9L15 9L15 8L16 8L16 9L18 9L18 10L21 10L21 11L22 11L22 14L23 14L23 13L26 13L26 12L25 12L25 11L28 11L28 10L27 10L27 9L26 9L26 8L25 8L25 9L23 9L23 10L21 10L21 9L22 9L22 8L23 8L23 6L22 6L22 8L21 8L21 6L20 6L20 4L19 4L19 3L21 3L21 2L22 2L22 4L23 4L23 2L24 2L24 5L25 5L25 1L24 1L24 0L21 0L21 2L19 2L19 3L17 3L17 2L15 2L15 1L13 1L13 0L12 0L12 1L11 1L11 0L10 0L10 1L9 1L9 0ZM18 0L18 1L20 1L20 0ZM11 2L11 4L12 4L12 3L13 3L13 2ZM14 2L14 3L15 3L15 4L13 4L13 5L12 5L12 6L11 6L11 8L12 8L12 6L13 6L13 5L15 5L15 7L16 7L16 8L17 8L17 7L18 7L18 9L19 9L19 8L20 8L20 6L19 6L19 7L18 7L18 5L19 5L19 4L16 4L16 3L15 3L15 2ZM15 4L15 5L16 5L16 7L17 7L17 5L16 5L16 4ZM8 6L8 7L9 7L9 6ZM24 6L24 7L25 7L25 6ZM28 8L28 9L29 9L29 10L30 10L30 9L31 9L31 8ZM32 8L32 10L31 10L31 11L32 11L32 12L31 12L31 13L33 13L33 8ZM6 9L6 10L7 10L7 9ZM11 9L11 10L12 10L12 9ZM25 9L25 10L24 10L24 11L23 11L23 12L24 12L24 11L25 11L25 10L26 10L26 9ZM11 11L11 13L10 13L10 14L9 14L9 12L8 12L8 14L7 14L7 15L6 15L6 16L5 16L5 17L6 17L6 18L7 18L7 19L6 19L6 20L8 20L8 19L9 19L9 18L10 18L10 20L9 20L9 21L8 21L8 22L7 22L7 23L6 23L6 24L7 24L7 23L8 23L8 22L9 22L9 23L16 23L16 21L15 21L15 22L13 22L13 21L14 21L14 19L15 19L15 20L17 20L17 19L15 19L15 17L14 17L14 19L13 19L13 17L12 17L12 16L9 16L9 18L7 18L7 17L8 17L8 15L11 15L11 13L12 13L12 12L13 12L13 11ZM29 11L29 12L27 12L27 14L26 14L26 15L27 15L27 14L28 14L28 13L29 13L29 14L30 14L30 15L28 15L28 17L27 17L27 16L26 16L26 17L25 17L25 18L29 18L29 16L30 16L30 17L31 17L31 19L32 19L32 18L33 18L33 17L32 17L32 16L33 16L33 15L32 15L32 16L31 16L31 14L30 14L30 13L29 13L29 12L30 12L30 11ZM0 15L0 16L1 16L1 15ZM20 15L20 16L19 16L19 17L18 17L18 20L19 20L19 21L21 21L21 20L22 20L22 18L20 18L20 16L21 16L21 15ZM6 16L6 17L7 17L7 16ZM10 17L10 18L11 18L11 17ZM11 19L11 20L12 20L12 19ZM19 19L19 20L20 20L20 19ZM26 19L26 20L27 20L27 19ZM0 21L0 22L1 22L1 21ZM9 21L9 22L10 22L10 21ZM22 21L22 23L23 23L23 21ZM12 24L12 26L13 26L13 27L14 27L14 26L13 26L13 25L15 25L15 24ZM16 24L16 25L17 25L17 24ZM18 24L18 25L19 25L19 24ZM25 25L25 28L28 28L28 25ZM15 26L15 27L17 27L17 29L16 29L16 31L18 31L18 30L17 30L17 29L18 29L18 26ZM26 26L26 27L27 27L27 26ZM22 27L22 29L23 29L23 27ZM31 28L31 29L32 29L32 28ZM11 29L11 30L12 30L12 29ZM11 31L11 32L12 32L12 31ZM28 31L28 33L29 33L29 32L30 32L30 33L31 33L31 32L30 32L30 31ZM0 0L0 7L7 7L7 0ZM1 1L1 6L6 6L6 1ZM2 2L2 5L5 5L5 2ZM26 0L26 7L33 7L33 0ZM27 1L27 6L32 6L32 1ZM28 2L28 5L31 5L31 2ZM0 26L0 33L7 33L7 26ZM1 27L1 32L6 32L6 27ZM2 28L2 31L5 31L5 28Z" fill="#000000"/></g></g></svg>
