<?xml version="1.0" encoding="UTF-8"?>
<svg xmlns="http://www.w3.org/2000/svg" version="1.1" width="150" height="150" viewBox="0 0 150 150"><rect x="0" y="0" width="150" height="150" fill="#ffffff"/><g transform="scale(4.054)"><g transform="translate(0,0)"><path fill-rule="evenodd" d="M10 0L10 2L11 2L11 0ZM12 0L12 1L13 1L13 2L12 2L12 4L13 4L13 3L14 3L14 4L15 4L15 5L17 5L17 4L18 4L18 3L19 3L19 5L21 5L21 4L20 4L20 3L19 3L19 2L18 2L18 3L17 3L17 4L16 4L16 2L17 2L17 1L16 1L16 0ZM19 0L19 1L20 1L20 2L21 2L21 3L22 3L22 4L23 4L23 5L22 5L22 7L21 7L21 6L20 6L20 9L18 9L18 8L17 8L17 6L16 6L16 9L12 9L12 7L13 7L13 5L11 5L11 6L10 6L10 4L11 4L11 3L8 3L8 4L9 4L9 5L8 5L8 7L9 7L9 8L6 8L6 9L9 9L9 10L6 10L6 11L5 11L5 10L2 10L2 9L5 9L5 8L0 8L0 9L1 9L1 10L0 10L0 13L1 13L1 14L2 14L2 13L3 13L3 14L4 14L4 11L5 11L5 12L6 12L6 13L7 13L7 14L6 14L6 15L7 15L7 16L4 16L4 17L3 17L3 18L4 18L4 17L7 17L7 16L8 16L8 15L9 15L9 16L10 16L10 13L11 13L11 12L10 12L10 11L11 11L11 9L12 9L12 10L13 10L13 11L12 11L12 13L13 13L13 12L14 12L14 13L15 13L15 14L18 14L18 15L19 15L19 17L18 17L18 16L17 16L17 15L16 15L16 16L17 16L17 18L16 18L16 17L12 17L12 15L13 15L13 14L11 14L11 17L12 17L12 18L13 18L13 19L12 19L12 21L13 21L13 20L14 20L14 21L15 21L15 20L16 20L16 22L15 22L15 23L14 23L14 24L15 24L15 25L12 25L12 23L13 23L13 22L11 22L11 18L9 18L9 17L8 17L8 18L5 18L5 19L4 19L4 20L0 20L0 23L1 23L1 21L2 21L2 23L3 23L3 24L1 24L1 25L0 25L0 29L1 29L1 25L2 25L2 28L3 28L3 29L4 29L4 25L5 25L5 27L7 27L7 28L5 28L5 29L7 29L7 28L8 28L8 27L7 27L7 26L9 26L9 25L10 25L10 26L11 26L11 25L12 25L12 26L13 26L13 27L12 27L12 29L13 29L13 28L14 28L14 29L15 29L15 31L14 31L14 32L15 32L15 33L12 33L12 31L13 31L13 30L11 30L11 31L10 31L10 29L11 29L11 28L10 28L10 29L8 29L8 31L9 31L9 32L8 32L8 37L10 37L10 36L11 36L11 35L10 35L10 36L9 36L9 34L10 34L10 32L11 32L11 33L12 33L12 34L13 34L13 35L12 35L12 37L13 37L13 36L14 36L14 37L17 37L17 35L18 35L18 36L19 36L19 37L20 37L20 36L22 36L22 37L23 37L23 36L22 36L22 35L23 35L23 34L24 34L24 33L23 33L23 32L25 32L25 34L26 34L26 35L28 35L28 36L29 36L29 37L32 37L32 34L33 34L33 35L36 35L36 36L34 36L34 37L37 37L37 32L36 32L36 33L34 33L34 32L33 32L33 31L37 31L37 30L36 30L36 29L35 29L35 28L36 28L36 27L37 27L37 26L36 26L36 27L35 27L35 24L34 24L34 23L37 23L37 22L34 22L34 21L36 21L36 20L34 20L34 19L32 19L32 17L36 17L36 15L37 15L37 14L34 14L34 13L36 13L36 12L37 12L37 10L34 10L34 8L33 8L33 11L35 11L35 12L34 12L34 13L33 13L33 12L32 12L32 13L33 13L33 14L32 14L32 15L31 15L31 14L30 14L30 15L29 15L29 13L31 13L31 12L29 12L29 11L31 11L31 10L32 10L32 8L31 8L31 9L30 9L30 8L29 8L29 4L28 4L28 5L26 5L26 4L27 4L27 3L25 3L25 6L24 6L24 8L23 8L23 5L24 5L24 4L23 4L23 1L24 1L24 2L25 2L25 1L24 1L24 0L23 0L23 1L21 1L21 0ZM26 0L26 2L28 2L28 3L29 3L29 2L28 2L28 1L29 1L29 0L28 0L28 1L27 1L27 0ZM8 1L8 2L9 2L9 1ZM14 2L14 3L15 3L15 2ZM9 6L9 7L10 7L10 6ZM11 6L11 7L12 7L12 6ZM14 6L14 8L15 8L15 6ZM18 6L18 7L19 7L19 6ZM25 6L25 8L26 8L26 9L24 9L24 10L21 10L21 11L20 11L20 10L19 10L19 11L16 11L16 13L17 13L17 12L18 12L18 13L20 13L20 12L21 12L21 13L22 13L22 16L23 16L23 17L21 17L21 16L20 16L20 17L21 17L21 18L23 18L23 19L22 19L22 20L21 20L21 19L20 19L20 18L18 18L18 19L17 19L17 20L18 20L18 21L19 21L19 20L20 20L20 21L22 21L22 23L23 23L23 25L24 25L24 26L23 26L23 27L22 27L22 28L20 28L20 27L21 27L21 25L22 25L22 24L21 24L21 22L18 22L18 23L17 23L17 22L16 22L16 23L15 23L15 24L16 24L16 25L15 25L15 26L16 26L16 27L14 27L14 28L16 28L16 29L17 29L17 28L18 28L18 27L17 27L17 26L18 26L18 25L17 25L17 24L18 24L18 23L20 23L20 24L19 24L19 25L20 25L20 26L19 26L19 28L20 28L20 30L19 30L19 29L18 29L18 30L19 30L19 31L20 31L20 32L19 32L19 33L20 33L20 34L19 34L19 35L20 35L20 34L21 34L21 35L22 35L22 34L23 34L23 33L22 33L22 32L21 32L21 30L22 30L22 31L24 31L24 30L23 30L23 29L24 29L24 26L25 26L25 28L26 28L26 27L27 27L27 28L29 28L29 24L27 24L27 23L26 23L26 20L28 20L28 21L27 21L27 22L28 22L28 23L30 23L30 22L31 22L31 23L32 23L32 24L33 24L33 25L32 25L32 26L33 26L33 25L34 25L34 24L33 24L33 21L32 21L32 19L30 19L30 18L31 18L31 17L32 17L32 16L31 16L31 17L30 17L30 18L28 18L28 17L29 17L29 16L28 16L28 17L27 17L27 14L28 14L28 13L27 13L27 12L28 12L28 11L29 11L29 10L28 10L28 9L29 9L29 8L28 8L28 9L27 9L27 8L26 8L26 6ZM27 6L27 7L28 7L28 6ZM10 8L10 9L11 9L11 8ZM21 8L21 9L22 9L22 8ZM35 8L35 9L36 9L36 8ZM16 9L16 10L18 10L18 9ZM1 10L1 13L2 13L2 10ZM24 10L24 11L21 11L21 12L25 12L25 14L24 14L24 17L23 17L23 18L25 18L25 19L26 19L26 18L25 18L25 17L26 17L26 16L25 16L25 15L26 15L26 14L27 14L27 13L26 13L26 12L25 12L25 11L26 11L26 10ZM27 10L27 11L28 11L28 10ZM6 11L6 12L7 12L7 13L9 13L9 12L8 12L8 11ZM14 11L14 12L15 12L15 11ZM19 11L19 12L20 12L20 11ZM19 14L19 15L21 15L21 14ZM0 15L0 16L1 16L1 15ZM14 15L14 16L15 16L15 15ZM33 15L33 16L35 16L35 15ZM0 18L0 19L1 19L1 18ZM27 18L27 19L28 19L28 18ZM35 18L35 19L37 19L37 18ZM6 19L6 20L8 20L8 22L9 22L9 21L10 21L10 19ZM14 19L14 20L15 20L15 19ZM29 19L29 22L30 22L30 21L31 21L31 22L32 22L32 21L31 21L31 20L30 20L30 19ZM4 20L4 23L6 23L6 24L7 24L7 25L6 25L6 26L7 26L7 25L9 25L9 23L6 23L6 22L7 22L7 21L6 21L6 22L5 22L5 20ZM22 20L22 21L23 21L23 22L24 22L24 23L25 23L25 22L24 22L24 21L25 21L25 20L24 20L24 21L23 21L23 20ZM10 22L10 24L11 24L11 22ZM3 24L3 25L4 25L4 24ZM24 24L24 25L27 25L27 24ZM36 24L36 25L37 25L37 24ZM30 25L30 26L31 26L31 25ZM27 26L27 27L28 27L28 26ZM31 27L31 28L33 28L33 27ZM34 27L34 28L35 28L35 27ZM22 28L22 29L23 29L23 28ZM26 29L26 30L25 30L25 32L27 32L27 31L28 31L28 30L27 30L27 29ZM29 29L29 32L32 32L32 29ZM34 29L34 30L35 30L35 29ZM16 30L16 31L17 31L17 32L16 32L16 33L17 33L17 34L18 34L18 33L17 33L17 32L18 32L18 31L17 31L17 30ZM26 30L26 31L27 31L27 30ZM30 30L30 31L31 31L31 30ZM26 33L26 34L27 34L27 33ZM29 34L29 35L31 35L31 34ZM14 35L14 36L15 36L15 35ZM24 36L24 37L27 37L27 36ZM0 0L0 7L7 7L7 0ZM1 1L1 6L6 6L6 1ZM2 2L2 5L5 5L5 2ZM30 0L30 7L37 7L37 0ZM31 1L31 6L36 6L36 1ZM32 2L32 5L35 5L35 2ZM0 30L0 37L7 37L7 30ZM1 31L1 36L6 36L6 31ZM2 32L2 35L5 35L5 32Z" fill="#000000"/></g></g></svg>
