<?xml version="1.0" encoding="UTF-8"?>
<svg xmlns="http://www.w3.org/2000/svg" version="1.1" width="150" height="150" viewBox="0 0 150 150"><rect x="0" y="0" width="150" height="150" fill="#ffffff"/><g transform="scale(1.485)"><g transform="translate(0,0)"><path fill-rule="evenodd" d="M9 0L9 1L8 1L8 2L10 2L10 3L8 3L8 4L9 4L9 5L8 5L8 7L9 7L9 5L11 5L11 6L10 6L10 8L6 8L6 9L5 9L5 8L0 8L0 12L1 12L1 13L0 13L0 14L1 14L1 15L2 15L2 17L1 17L1 16L0 16L0 17L1 17L1 18L0 18L0 20L1 20L1 21L0 21L0 22L2 22L2 23L1 23L1 24L0 24L0 27L1 27L1 28L2 28L2 27L3 27L3 28L4 28L4 31L3 31L3 32L2 32L2 31L1 31L1 30L0 30L0 31L1 31L1 32L0 32L0 35L1 35L1 36L0 36L0 37L1 37L1 39L0 39L0 40L1 40L1 41L2 41L2 39L4 39L4 40L3 40L3 42L0 42L0 43L2 43L2 45L4 45L4 44L5 44L5 45L7 45L7 46L5 46L5 47L4 47L4 48L2 48L2 47L1 47L1 45L0 45L0 48L2 48L2 49L3 49L3 50L4 50L4 53L3 53L3 54L2 54L2 55L1 55L1 56L0 56L0 57L1 57L1 58L0 58L0 65L1 65L1 58L2 58L2 57L4 57L4 58L5 58L5 57L4 57L4 55L3 55L3 54L6 54L6 55L8 55L8 56L6 56L6 57L7 57L7 58L6 58L6 59L7 59L7 60L6 60L6 61L7 61L7 62L5 62L5 59L4 59L4 60L3 60L3 59L2 59L2 60L3 60L3 61L4 61L4 62L5 62L5 63L4 63L4 66L3 66L3 62L2 62L2 66L3 66L3 68L2 68L2 67L1 67L1 70L0 70L0 71L2 71L2 70L3 70L3 69L4 69L4 72L3 72L3 73L1 73L1 74L2 74L2 75L1 75L1 78L0 78L0 79L2 79L2 78L3 78L3 77L2 77L2 76L3 76L3 75L5 75L5 76L4 76L4 77L5 77L5 76L6 76L6 77L7 77L7 78L6 78L6 79L7 79L7 78L8 78L8 76L9 76L9 78L10 78L10 79L8 79L8 81L9 81L9 82L10 82L10 84L6 84L6 83L8 83L8 82L5 82L5 81L7 81L7 80L4 80L4 81L3 81L3 80L2 80L2 81L1 81L1 83L0 83L0 84L1 84L1 85L4 85L4 87L5 87L5 89L9 89L9 90L11 90L11 93L10 93L10 92L6 92L6 91L8 91L8 90L6 90L6 91L5 91L5 90L3 90L3 91L2 91L2 92L4 92L4 93L5 93L5 92L6 92L6 93L8 93L8 95L9 95L9 96L8 96L8 101L9 101L9 100L10 100L10 101L11 101L11 100L10 100L10 99L11 99L11 98L10 98L10 97L11 97L11 96L12 96L12 98L14 98L14 99L15 99L15 101L16 101L16 98L14 98L14 97L13 97L13 96L12 96L12 95L15 95L15 94L16 94L16 97L18 97L18 98L17 98L17 99L18 99L18 98L21 98L21 99L22 99L22 98L21 98L21 97L22 97L22 96L23 96L23 97L27 97L27 99L26 99L26 98L25 98L25 99L23 99L23 101L26 101L26 100L27 100L27 101L28 101L28 99L29 99L29 101L30 101L30 100L31 100L31 98L32 98L32 99L33 99L33 100L32 100L32 101L34 101L34 100L35 100L35 99L33 99L33 98L35 98L35 97L34 97L34 96L39 96L39 97L37 97L37 98L40 98L40 99L43 99L43 101L44 101L44 98L45 98L45 97L46 97L46 96L47 96L47 99L46 99L46 100L47 100L47 101L48 101L48 100L49 100L49 99L50 99L50 100L51 100L51 101L53 101L53 100L54 100L54 101L55 101L55 99L57 99L57 100L56 100L56 101L58 101L58 100L61 100L61 99L58 99L58 98L60 98L60 97L61 97L61 96L63 96L63 97L62 97L62 98L63 98L63 99L62 99L62 100L63 100L63 101L66 101L66 100L63 100L63 99L65 99L65 98L66 98L66 99L67 99L67 100L68 100L68 99L67 99L67 98L66 98L66 97L67 97L67 96L68 96L68 97L69 97L69 96L70 96L70 98L69 98L69 101L71 101L71 100L72 100L72 101L73 101L73 99L74 99L74 101L76 101L76 99L79 99L79 100L80 100L80 101L82 101L82 100L83 100L83 101L85 101L85 100L87 100L87 101L88 101L88 99L89 99L89 101L90 101L90 99L92 99L92 98L93 98L93 97L94 97L94 98L95 98L95 99L97 99L97 100L94 100L94 99L93 99L93 101L98 101L98 99L99 99L99 100L100 100L100 97L101 97L101 96L100 96L100 97L99 97L99 96L98 96L98 95L100 95L100 94L101 94L101 91L99 91L99 92L98 92L98 90L97 90L97 89L95 89L95 91L94 91L94 90L93 90L93 92L92 92L92 91L91 91L91 90L92 90L92 89L90 89L90 87L91 87L91 88L92 88L92 87L93 87L93 88L96 88L96 86L101 86L101 84L100 84L100 83L99 83L99 84L98 84L98 82L101 82L101 81L100 81L100 80L101 80L101 79L100 79L100 80L98 80L98 79L99 79L99 78L101 78L101 75L100 75L100 74L101 74L101 71L100 71L100 74L99 74L99 72L98 72L98 73L97 73L97 69L98 69L98 67L100 67L100 68L99 68L99 69L100 69L100 70L101 70L101 69L100 69L100 68L101 68L101 66L99 66L99 64L100 64L100 65L101 65L101 64L100 64L100 62L101 62L101 59L99 59L99 58L98 58L98 59L97 59L97 60L96 60L96 61L95 61L95 60L94 60L94 59L93 59L93 58L92 58L92 59L93 59L93 60L92 60L92 61L91 61L91 60L89 60L89 61L90 61L90 62L87 62L87 60L88 60L88 59L91 59L91 57L93 57L93 56L94 56L94 57L95 57L95 54L96 54L96 53L97 53L97 54L99 54L99 52L100 52L100 54L101 54L101 52L100 52L100 50L101 50L101 47L100 47L100 48L98 48L98 47L99 47L99 46L98 46L98 47L94 47L94 46L96 46L96 45L97 45L97 44L98 44L98 45L99 45L99 44L100 44L100 46L101 46L101 43L100 43L100 42L101 42L101 41L99 41L99 40L100 40L100 38L101 38L101 36L100 36L100 37L99 37L99 36L97 36L97 35L94 35L94 34L96 34L96 32L98 32L98 33L100 33L100 34L101 34L101 33L100 33L100 32L101 32L101 31L99 31L99 30L101 30L101 29L99 29L99 28L98 28L98 25L99 25L99 26L101 26L101 25L100 25L100 23L99 23L99 24L98 24L98 23L97 23L97 22L101 22L101 20L100 20L100 18L101 18L101 17L100 17L100 16L101 16L101 15L100 15L100 14L101 14L101 13L100 13L100 12L101 12L101 11L100 11L100 10L101 10L101 9L100 9L100 8L99 8L99 12L98 12L98 11L97 11L97 10L96 10L96 11L95 11L95 10L94 10L94 8L93 8L93 6L92 6L92 5L93 5L93 4L92 4L92 2L91 2L91 3L90 3L90 1L92 1L92 0L88 0L88 2L89 2L89 3L87 3L87 2L86 2L86 5L85 5L85 6L84 6L84 7L83 7L83 6L82 6L82 5L84 5L84 4L85 4L85 2L84 2L84 4L82 4L82 3L83 3L83 2L81 2L81 1L83 1L83 0L81 0L81 1L80 1L80 2L79 2L79 1L77 1L77 0L76 0L76 1L75 1L75 2L74 2L74 1L73 1L73 0L72 0L72 1L71 1L71 0L67 0L67 1L66 1L66 0L64 0L64 1L63 1L63 2L60 2L60 0L59 0L59 2L58 2L58 0L55 0L55 1L54 1L54 2L55 2L55 1L56 1L56 2L57 2L57 3L58 3L58 4L59 4L59 5L61 5L61 6L60 6L60 7L59 7L59 6L58 6L58 7L57 7L57 4L56 4L56 3L55 3L55 4L54 4L54 3L52 3L52 4L49 4L49 2L50 2L50 3L51 3L51 2L53 2L53 1L52 1L52 0L50 0L50 1L49 1L49 0L48 0L48 1L49 1L49 2L48 2L48 3L47 3L47 2L46 2L46 1L47 1L47 0L45 0L45 1L44 1L44 2L45 2L45 3L42 3L42 4L43 4L43 5L42 5L42 7L41 7L41 5L40 5L40 4L41 4L41 3L39 3L39 2L43 2L43 1L40 1L40 0L39 0L39 2L38 2L38 0L37 0L37 2L36 2L36 0L35 0L35 2L33 2L33 1L34 1L34 0L33 0L33 1L32 1L32 2L33 2L33 3L38 3L38 4L37 4L37 6L36 6L36 7L35 7L35 6L34 6L34 5L33 5L33 4L28 4L28 3L27 3L27 2L29 2L29 3L30 3L30 2L31 2L31 0L30 0L30 1L27 1L27 2L26 2L26 0L25 0L25 2L24 2L24 3L23 3L23 2L21 2L21 1L23 1L23 0L21 0L21 1L20 1L20 2L21 2L21 3L20 3L20 4L18 4L18 3L19 3L19 2L18 2L18 1L19 1L19 0L17 0L17 2L16 2L16 4L14 4L14 5L13 5L13 3L15 3L15 0L13 0L13 1L14 1L14 2L12 2L12 0ZM84 0L84 1L85 1L85 0ZM86 0L86 1L87 1L87 0ZM50 1L50 2L51 2L51 1ZM64 1L64 2L63 2L63 3L65 3L65 1ZM70 1L70 2L68 2L68 3L67 3L67 2L66 2L66 4L65 4L65 7L64 7L64 4L63 4L63 5L62 5L62 6L61 6L61 7L62 7L62 6L63 6L63 8L61 8L61 9L60 9L60 8L59 8L59 9L58 9L58 8L57 8L57 7L56 7L56 5L55 5L55 7L54 7L54 6L53 6L53 11L52 11L52 13L51 13L51 12L50 12L50 11L51 11L51 10L52 10L52 9L51 9L51 10L50 10L50 9L49 9L49 12L47 12L47 13L49 13L49 14L50 14L50 15L51 15L51 16L48 16L48 17L47 17L47 18L45 18L45 15L46 15L46 16L47 16L47 15L48 15L48 14L45 14L45 13L46 13L46 12L45 12L45 11L44 11L44 10L45 10L45 9L44 9L44 8L45 8L45 7L46 7L46 6L47 6L47 7L48 7L48 6L47 6L47 5L48 5L48 4L47 4L47 3L46 3L46 4L47 4L47 5L45 5L45 7L44 7L44 5L43 5L43 7L42 7L42 8L41 8L41 7L40 7L40 6L39 6L39 4L38 4L38 6L37 6L37 8L34 8L34 9L35 9L35 10L34 10L34 11L37 11L37 12L36 12L36 13L37 13L37 14L36 14L36 15L37 15L37 16L34 16L34 15L35 15L35 14L34 14L34 13L35 13L35 12L34 12L34 13L32 13L32 14L31 14L31 13L30 13L30 12L31 12L31 11L29 11L29 10L28 10L28 9L26 9L26 10L28 10L28 11L25 11L25 8L26 8L26 5L25 5L25 4L27 4L27 3L26 3L26 2L25 2L25 3L24 3L24 6L23 6L23 4L22 4L22 3L21 3L21 4L22 4L22 5L18 5L18 4L17 4L17 5L14 5L14 6L13 6L13 8L12 8L12 6L11 6L11 8L10 8L10 9L9 9L9 10L11 10L11 11L10 11L10 13L8 13L8 12L7 12L7 11L8 11L8 10L7 10L7 9L6 9L6 10L5 10L5 11L4 11L4 12L5 12L5 14L4 14L4 13L3 13L3 12L2 12L2 13L1 13L1 14L2 14L2 15L3 15L3 17L2 17L2 18L4 18L4 16L5 16L5 17L6 17L6 18L5 18L5 19L2 19L2 21L4 21L4 22L3 22L3 24L2 24L2 25L3 25L3 24L4 24L4 25L6 25L6 26L8 26L8 25L10 25L10 26L9 26L9 27L12 27L12 28L9 28L9 32L7 32L7 31L4 31L4 33L5 33L5 34L4 34L4 35L6 35L6 36L7 36L7 37L5 37L5 38L4 38L4 39L5 39L5 41L6 41L6 42L8 42L8 43L5 43L5 44L7 44L7 45L8 45L8 44L9 44L9 48L10 48L10 47L11 47L11 45L13 45L13 47L12 47L12 48L13 48L13 49L11 49L11 50L12 50L12 51L11 51L11 52L14 52L14 51L15 51L15 50L16 50L16 49L15 49L15 48L17 48L17 47L15 47L15 46L17 46L17 45L18 45L18 48L21 48L21 47L19 47L19 44L20 44L20 46L21 46L21 45L22 45L22 47L23 47L23 45L22 45L22 44L20 44L20 42L21 42L21 41L20 41L20 42L19 42L19 39L20 39L20 40L21 40L21 39L26 39L26 37L27 37L27 36L25 36L25 38L23 38L23 37L24 37L24 36L23 36L23 37L22 37L22 35L26 35L26 34L29 34L29 33L30 33L30 35L31 35L31 36L30 36L30 37L29 37L29 36L28 36L28 38L27 38L27 42L25 42L25 41L24 41L24 42L22 42L22 43L23 43L23 44L24 44L24 43L26 43L26 44L25 44L25 45L24 45L24 47L26 47L26 46L27 46L27 45L28 45L28 47L29 47L29 45L30 45L30 47L32 47L32 49L33 49L33 51L32 51L32 50L31 50L31 51L32 51L32 52L31 52L31 53L26 53L26 54L24 54L24 55L23 55L23 54L22 54L22 53L21 53L21 55L20 55L20 57L21 57L21 56L22 56L22 57L23 57L23 58L22 58L22 59L21 59L21 58L20 58L20 59L18 59L18 60L17 60L17 61L15 61L15 62L14 62L14 61L13 61L13 60L14 60L14 59L17 59L17 57L19 57L19 56L18 56L18 55L19 55L19 54L18 54L18 53L14 53L14 54L16 54L16 55L17 55L17 57L16 57L16 56L15 56L15 55L12 55L12 53L10 53L10 52L9 52L9 53L6 53L6 54L10 54L10 55L12 55L12 56L10 56L10 57L9 57L9 56L8 56L8 57L9 57L9 58L8 58L8 59L9 59L9 58L10 58L10 59L11 59L11 58L14 58L14 59L12 59L12 61L11 61L11 60L10 60L10 61L9 61L9 60L8 60L8 61L9 61L9 62L10 62L10 61L11 61L11 63L8 63L8 64L7 64L7 63L6 63L6 64L7 64L7 65L5 65L5 66L4 66L4 67L5 67L5 68L4 68L4 69L5 69L5 70L7 70L7 69L10 69L10 71L9 71L9 73L10 73L10 74L12 74L12 76L11 76L11 75L10 75L10 76L11 76L11 78L12 78L12 76L13 76L13 79L12 79L12 80L11 80L11 81L12 81L12 80L13 80L13 79L16 79L16 80L14 80L14 81L13 81L13 82L14 82L14 81L16 81L16 82L15 82L15 84L14 84L14 83L13 83L13 85L15 85L15 86L14 86L14 87L13 87L13 86L12 86L12 85L9 85L9 87L13 87L13 88L14 88L14 87L16 87L16 88L15 88L15 89L16 89L16 90L17 90L17 91L15 91L15 92L14 92L14 90L13 90L13 89L12 89L12 88L9 88L9 89L12 89L12 90L13 90L13 91L12 91L12 94L11 94L11 95L12 95L12 94L13 94L13 92L14 92L14 93L15 93L15 92L16 92L16 93L17 93L17 94L18 94L18 93L19 93L19 94L20 94L20 92L21 92L21 93L22 93L22 91L24 91L24 90L26 90L26 91L25 91L25 92L27 92L27 91L29 91L29 92L31 92L31 93L32 93L32 94L31 94L31 95L32 95L32 96L31 96L31 97L30 97L30 98L31 98L31 97L32 97L32 96L33 96L33 95L32 95L32 94L33 94L33 93L34 93L34 95L37 95L37 93L36 93L36 92L35 92L35 93L34 93L34 91L39 91L39 90L38 90L38 89L39 89L39 88L41 88L41 89L40 89L40 90L41 90L41 89L42 89L42 90L43 90L43 91L40 91L40 93L39 93L39 92L38 92L38 93L39 93L39 94L38 94L38 95L39 95L39 94L40 94L40 93L41 93L41 94L43 94L43 93L44 93L44 94L45 94L45 95L44 95L44 96L45 96L45 95L47 95L47 96L48 96L48 94L45 94L45 92L46 92L46 93L47 93L47 92L48 92L48 91L49 91L49 92L53 92L53 94L54 94L54 92L53 92L53 90L55 90L55 91L56 91L56 92L55 92L55 95L54 95L54 96L53 96L53 97L51 97L51 98L50 98L50 99L51 99L51 100L53 100L53 99L52 99L52 98L53 98L53 97L54 97L54 98L55 98L55 97L56 97L56 96L57 96L57 97L58 97L58 96L57 96L57 95L56 95L56 92L57 92L57 91L56 91L56 90L55 90L55 89L56 89L56 88L57 88L57 90L58 90L58 91L61 91L61 92L58 92L58 93L59 93L59 94L58 94L58 95L59 95L59 97L60 97L60 95L61 95L61 94L62 94L62 95L63 95L63 94L64 94L64 93L65 93L65 94L67 94L67 95L64 95L64 96L65 96L65 97L64 97L64 98L65 98L65 97L66 97L66 96L67 96L67 95L68 95L68 96L69 96L69 95L68 95L68 94L70 94L70 92L69 92L69 91L68 91L68 90L67 90L67 89L68 89L68 88L69 88L69 89L70 89L70 90L73 90L73 89L74 89L74 90L75 90L75 91L71 91L71 92L75 92L75 94L77 94L77 95L76 95L76 97L75 97L75 98L74 98L74 97L73 97L73 98L72 98L72 97L71 97L71 98L70 98L70 99L73 99L73 98L74 98L74 99L76 99L76 98L77 98L77 97L81 97L81 95L83 95L83 96L82 96L82 97L84 97L84 98L82 98L82 99L80 99L80 98L79 98L79 99L80 99L80 100L82 100L82 99L83 99L83 100L84 100L84 99L85 99L85 97L86 97L86 99L87 99L87 97L88 97L88 98L89 98L89 97L91 97L91 98L92 98L92 97L91 97L91 96L92 96L92 95L90 95L90 96L89 96L89 95L88 95L88 94L89 94L89 93L88 93L88 94L86 94L86 93L87 93L87 92L90 92L90 94L92 94L92 92L91 92L91 91L90 91L90 89L89 89L89 91L87 91L87 90L86 90L86 89L87 89L87 88L89 88L89 87L87 87L87 86L91 86L91 87L92 87L92 86L93 86L93 85L94 85L94 87L95 87L95 85L98 85L98 84L97 84L97 82L98 82L98 80L96 80L96 79L98 79L98 78L94 78L94 76L91 76L91 75L90 75L90 76L91 76L91 77L92 77L92 78L91 78L91 79L90 79L90 80L89 80L89 79L88 79L88 81L87 81L87 82L86 82L86 83L85 83L85 81L84 81L84 79L87 79L87 78L86 78L86 77L87 77L87 76L89 76L89 75L88 75L88 74L89 74L89 73L88 73L88 72L91 72L91 74L92 74L92 72L91 72L91 71L92 71L92 70L93 70L93 69L90 69L90 68L91 68L91 67L93 67L93 68L94 68L94 70L96 70L96 69L95 69L95 68L97 68L97 67L98 67L98 64L99 64L99 63L98 63L98 64L97 64L97 62L96 62L96 64L97 64L97 65L94 65L94 66L93 66L93 65L92 65L92 63L94 63L94 64L95 64L95 63L94 63L94 62L95 62L95 61L94 61L94 60L93 60L93 61L92 61L92 63L87 63L87 62L86 62L86 59L87 59L87 58L90 58L90 57L91 57L91 56L92 56L92 54L95 54L95 53L92 53L92 54L91 54L91 55L90 55L90 53L91 53L91 52L92 52L92 50L91 50L91 51L90 51L90 49L88 49L88 50L89 50L89 51L87 51L87 49L86 49L86 47L87 47L87 48L91 48L91 49L92 49L92 47L88 47L88 46L90 46L90 45L91 45L91 46L92 46L92 45L93 45L93 44L92 44L92 43L93 43L93 41L92 41L92 43L90 43L90 44L89 44L89 43L88 43L88 44L86 44L86 43L87 43L87 42L86 42L86 43L85 43L85 42L84 42L84 41L83 41L83 42L81 42L81 41L82 41L82 40L81 40L81 39L80 39L80 38L79 38L79 39L78 39L78 37L79 37L79 35L80 35L80 36L81 36L81 37L82 37L82 39L83 39L83 37L82 37L82 36L81 36L81 35L83 35L83 36L84 36L84 35L85 35L85 34L86 34L86 36L85 36L85 37L84 37L84 39L85 39L85 41L87 41L87 40L88 40L88 42L91 42L91 40L93 40L93 39L94 39L94 41L95 41L95 42L94 42L94 43L97 43L97 42L98 42L98 44L99 44L99 42L98 42L98 40L99 40L99 38L96 38L96 39L94 39L94 38L93 38L93 39L90 39L90 38L91 38L91 36L92 36L92 37L96 37L96 36L93 36L93 34L94 34L94 33L95 33L95 31L90 31L90 33L89 33L89 31L87 31L87 30L86 30L86 29L85 29L85 30L84 30L84 29L83 29L83 28L84 28L84 27L85 27L85 26L84 26L84 25L85 25L85 24L84 24L84 23L85 23L85 22L86 22L86 24L87 24L87 25L88 25L88 26L86 26L86 27L88 27L88 28L89 28L89 29L88 29L88 30L89 30L89 29L90 29L90 28L91 28L91 27L88 27L88 26L89 26L89 24L92 24L92 25L91 25L91 26L92 26L92 25L93 25L93 26L95 26L95 25L96 25L96 26L97 26L97 25L98 25L98 24L97 24L97 23L96 23L96 24L95 24L95 23L94 23L94 24L95 24L95 25L93 25L93 24L92 24L92 23L90 23L90 22L91 22L91 21L92 21L92 22L93 22L93 21L94 21L94 22L97 22L97 21L98 21L98 20L99 20L99 21L100 21L100 20L99 20L99 19L98 19L98 16L100 16L100 15L96 15L96 14L98 14L98 12L97 12L97 13L95 13L95 15L93 15L93 14L92 14L92 13L94 13L94 12L95 12L95 11L93 11L93 10L92 10L92 9L93 9L93 8L92 8L92 6L91 6L91 5L92 5L92 4L91 4L91 5L90 5L90 3L89 3L89 7L88 7L88 6L87 6L87 5L88 5L88 4L87 4L87 5L86 5L86 6L85 6L85 7L86 7L86 8L89 8L89 10L91 10L91 12L92 12L92 13L90 13L90 14L91 14L91 15L87 15L87 12L86 12L86 15L85 15L85 14L84 14L84 13L85 13L85 12L82 12L82 13L83 13L83 14L82 14L82 15L80 15L80 18L79 18L79 17L76 17L76 16L78 16L78 15L76 15L76 16L75 16L75 17L73 17L73 16L69 16L69 15L68 15L68 13L69 13L69 11L70 11L70 13L72 13L72 14L71 14L71 15L73 15L73 14L74 14L74 15L75 15L75 14L74 14L74 11L75 11L75 12L79 12L79 14L81 14L81 11L85 11L85 10L86 10L86 11L88 11L88 12L90 12L90 11L88 11L88 9L85 9L85 10L81 10L81 7L82 7L82 6L81 6L81 7L80 7L80 6L79 6L79 7L78 7L78 5L79 5L79 4L81 4L81 2L80 2L80 3L79 3L79 2L78 2L78 3L77 3L77 2L76 2L76 4L75 4L75 3L74 3L74 2L73 2L73 3L74 3L74 4L75 4L75 5L76 5L76 4L77 4L77 7L76 7L76 6L75 6L75 8L76 8L76 9L72 9L72 10L71 10L71 11L70 11L70 10L69 10L69 11L68 11L68 9L66 9L66 8L67 8L67 7L68 7L68 8L69 8L69 7L70 7L70 6L69 6L69 5L68 5L68 6L67 6L67 7L66 7L66 4L68 4L68 3L69 3L69 4L70 4L70 2L71 2L71 1ZM11 2L11 4L12 4L12 2ZM78 3L78 4L79 4L79 3ZM35 4L35 5L36 5L36 4ZM53 4L53 5L54 5L54 4ZM27 5L27 8L30 8L30 5ZM31 5L31 7L32 7L32 8L31 8L31 9L32 9L32 10L33 10L33 9L32 9L32 8L33 8L33 7L34 7L34 6L33 6L33 7L32 7L32 5ZM49 5L49 8L52 8L52 5ZM71 5L71 8L74 8L74 5ZM14 6L14 7L15 7L15 9L13 9L13 10L12 10L12 11L11 11L11 13L10 13L10 15L9 15L9 17L8 17L8 16L6 16L6 17L8 17L8 18L6 18L6 19L5 19L5 20L4 20L4 21L5 21L5 20L6 20L6 21L7 21L7 22L5 22L5 23L4 23L4 24L5 24L5 23L8 23L8 24L6 24L6 25L8 25L8 24L10 24L10 25L11 25L11 26L12 26L12 27L13 27L13 26L12 26L12 24L11 24L11 23L8 23L8 22L12 22L12 23L13 23L13 21L14 21L14 25L15 25L15 26L14 26L14 28L16 28L16 29L14 29L14 36L13 36L13 35L12 35L12 34L13 34L13 32L11 32L11 31L12 31L12 30L13 30L13 29L12 29L12 30L11 30L11 29L10 29L10 33L7 33L7 32L5 32L5 33L7 33L7 34L6 34L6 35L7 35L7 36L8 36L8 37L11 37L11 38L13 38L13 40L14 40L14 41L12 41L12 42L11 42L11 43L9 43L9 44L10 44L10 45L11 45L11 43L12 43L12 42L13 42L13 45L14 45L14 41L16 41L16 42L15 42L15 43L16 43L16 45L17 45L17 44L18 44L18 43L17 43L17 41L18 41L18 40L17 40L17 41L16 41L16 39L15 39L15 38L14 38L14 36L15 36L15 35L16 35L16 34L17 34L17 36L16 36L16 37L17 37L17 39L18 39L18 38L20 38L20 37L19 37L19 35L20 35L20 36L21 36L21 34L23 34L23 31L24 31L24 32L25 32L25 33L24 33L24 34L25 34L25 33L27 33L27 32L31 32L31 29L33 29L33 28L35 28L35 29L36 29L36 28L39 28L39 29L40 29L40 30L39 30L39 31L38 31L38 29L37 29L37 31L33 31L33 30L32 30L32 31L33 31L33 32L34 32L34 33L33 33L33 34L32 34L32 33L31 33L31 34L32 34L32 35L33 35L33 36L32 36L32 37L33 37L33 38L32 38L32 39L29 39L29 38L28 38L28 40L29 40L29 41L30 41L30 42L29 42L29 44L32 44L32 45L33 45L33 46L32 46L32 47L33 47L33 48L35 48L35 49L36 49L36 48L37 48L37 47L38 47L38 48L39 48L39 47L43 47L43 48L44 48L44 49L42 49L42 48L41 48L41 49L40 49L40 50L39 50L39 51L38 51L38 49L37 49L37 51L33 51L33 52L32 52L32 54L31 54L31 56L29 56L29 55L27 55L27 56L26 56L26 55L24 55L24 56L26 56L26 57L24 57L24 58L25 58L25 59L22 59L22 61L21 61L21 60L20 60L20 61L19 61L19 60L18 60L18 61L17 61L17 62L16 62L16 63L17 63L17 62L19 62L19 63L18 63L18 64L17 64L17 65L16 65L16 64L15 64L15 63L14 63L14 62L12 62L12 63L11 63L11 64L13 64L13 63L14 63L14 64L15 64L15 65L16 65L16 66L14 66L14 65L12 65L12 66L10 66L10 65L7 65L7 66L6 66L6 67L7 67L7 66L8 66L8 68L9 68L9 67L12 67L12 68L13 68L13 69L11 69L11 70L12 70L12 72L13 72L13 74L15 74L15 73L17 73L17 76L16 76L16 75L14 75L14 76L15 76L15 77L14 77L14 78L18 78L18 79L17 79L17 80L16 80L16 81L17 81L17 80L19 80L19 81L18 81L18 82L17 82L17 84L15 84L15 85L16 85L16 86L17 86L17 87L18 87L18 88L16 88L16 89L19 89L19 90L20 90L20 91L19 91L19 92L20 92L20 91L22 91L22 90L24 90L24 89L25 89L25 87L24 87L24 89L22 89L22 88L23 88L23 87L21 87L21 86L20 86L20 85L22 85L22 83L23 83L23 84L24 84L24 86L25 86L25 85L26 85L26 84L25 84L25 83L26 83L26 82L25 82L25 81L26 81L26 80L25 80L25 79L26 79L26 78L27 78L27 81L28 81L28 80L30 80L30 82L31 82L31 83L33 83L33 84L32 84L32 85L33 85L33 84L37 84L37 85L36 85L36 86L35 86L35 87L34 87L34 86L32 86L32 87L31 87L31 89L30 89L30 90L31 90L31 92L32 92L32 91L33 91L33 90L34 90L34 89L35 89L35 88L36 88L36 90L37 90L37 87L36 87L36 86L37 86L37 85L39 85L39 87L38 87L38 88L39 88L39 87L43 87L43 88L42 88L42 89L43 89L43 88L44 88L44 89L45 89L45 90L44 90L44 91L43 91L43 92L41 92L41 93L43 93L43 92L44 92L44 91L46 91L46 92L47 92L47 91L46 91L46 90L47 90L47 89L48 89L48 86L47 86L47 85L48 85L48 84L47 84L47 83L49 83L49 84L50 84L50 85L49 85L49 86L50 86L50 87L51 87L51 88L50 88L50 89L51 89L51 90L50 90L50 91L51 91L51 90L53 90L53 88L54 88L54 89L55 89L55 88L56 88L56 87L57 87L57 86L59 86L59 87L58 87L58 88L61 88L61 89L64 89L64 90L63 90L63 91L62 91L62 92L61 92L61 93L60 93L60 94L59 94L59 95L60 95L60 94L61 94L61 93L62 93L62 94L63 94L63 93L64 93L64 91L67 91L67 94L68 94L68 91L67 91L67 90L65 90L65 89L64 89L64 87L65 87L65 88L66 88L66 89L67 89L67 88L66 88L66 87L67 87L67 86L68 86L68 87L69 87L69 88L70 88L70 87L69 87L69 86L70 86L70 85L71 85L71 84L73 84L73 86L72 86L72 88L71 88L71 89L73 89L73 86L74 86L74 87L77 87L77 89L78 89L78 87L79 87L79 86L80 86L80 87L81 87L81 86L82 86L82 85L81 85L81 84L83 84L83 87L82 87L82 88L81 88L81 90L80 90L80 88L79 88L79 90L76 90L76 91L77 91L77 93L78 93L78 91L79 91L79 90L80 90L80 91L81 91L81 93L79 93L79 94L78 94L78 95L79 95L79 96L80 96L80 95L81 95L81 94L83 94L83 93L82 93L82 92L83 92L83 91L82 91L82 90L84 90L84 89L82 89L82 88L87 88L87 87L84 87L84 85L85 85L85 83L84 83L84 84L83 84L83 83L81 83L81 81L82 81L82 82L84 82L84 81L83 81L83 79L82 79L82 78L84 78L84 77L85 77L85 75L84 75L84 76L83 76L83 75L81 75L81 72L83 72L83 73L84 73L84 74L86 74L86 72L88 72L88 71L89 71L89 70L88 70L88 69L89 69L89 68L88 68L88 67L91 67L91 66L87 66L87 65L88 65L88 64L87 64L87 63L86 63L86 64L85 64L85 63L82 63L82 65L83 65L83 64L85 64L85 65L84 65L84 66L83 66L83 67L82 67L82 66L81 66L81 65L79 65L79 66L76 66L76 64L75 64L75 65L74 65L74 66L73 66L73 65L72 65L72 66L70 66L70 68L69 68L69 69L68 69L68 70L67 70L67 68L68 68L68 67L69 67L69 66L68 66L68 65L69 65L69 64L68 64L68 63L72 63L72 64L73 64L73 63L75 63L75 62L76 62L76 63L79 63L79 60L78 60L78 61L77 61L77 60L75 60L75 59L81 59L81 60L80 60L80 61L81 61L81 60L83 60L83 59L84 59L84 60L85 60L85 59L84 59L84 58L85 58L85 57L86 57L86 56L87 56L87 57L90 57L90 56L87 56L87 55L89 55L89 54L88 54L88 53L87 53L87 51L86 51L86 49L84 49L84 50L85 50L85 51L84 51L84 52L85 52L85 51L86 51L86 53L84 53L84 54L87 54L87 55L86 55L86 56L85 56L85 55L84 55L84 56L83 56L83 55L82 55L82 56L80 56L80 57L81 57L81 58L79 58L79 56L76 56L76 55L77 55L77 54L78 54L78 55L79 55L79 53L80 53L80 55L81 55L81 53L83 53L83 51L81 51L81 50L79 50L79 48L80 48L80 49L83 49L83 48L85 48L85 47L84 47L84 45L85 45L85 46L86 46L86 44L85 44L85 43L84 43L84 45L83 45L83 43L82 43L82 45L81 45L81 46L80 46L80 43L81 43L81 42L77 42L77 41L78 41L78 40L72 40L72 42L71 42L71 44L69 44L69 45L73 45L73 46L72 46L72 47L73 47L73 48L71 48L71 47L70 47L70 46L68 46L68 45L67 45L67 44L68 44L68 43L70 43L70 42L69 42L69 41L70 41L70 40L71 40L71 39L70 39L70 38L69 38L69 37L68 37L68 35L71 35L71 33L69 33L69 32L68 32L68 31L70 31L70 32L71 32L71 31L73 31L73 32L72 32L72 33L73 33L73 32L74 32L74 34L72 34L72 35L73 35L73 36L72 36L72 37L73 37L73 36L74 36L74 37L75 37L75 38L74 38L74 39L76 39L76 37L78 37L78 36L76 36L76 35L79 35L79 34L80 34L80 35L81 35L81 33L79 33L79 32L74 32L74 31L79 31L79 30L80 30L80 31L81 31L81 32L82 32L82 34L85 34L85 33L83 33L83 32L85 32L85 31L84 31L84 30L83 30L83 29L82 29L82 28L83 28L83 27L82 27L82 28L80 28L80 29L79 29L79 28L77 28L77 30L76 30L76 29L75 29L75 26L76 26L76 27L79 27L79 26L80 26L80 27L81 27L81 25L79 25L79 24L78 24L78 23L79 23L79 22L77 22L77 21L76 21L76 23L74 23L74 24L75 24L75 26L74 26L74 25L72 25L72 26L71 26L71 25L66 25L66 24L64 24L64 23L67 23L67 22L68 22L68 23L72 23L72 24L73 24L73 23L72 23L72 20L73 20L73 19L71 19L71 18L73 18L73 17L71 17L71 18L70 18L70 19L69 19L69 17L67 17L67 16L66 16L66 15L67 15L67 13L68 13L68 11L67 11L67 10L66 10L66 11L67 11L67 13L66 13L66 14L65 14L65 13L64 13L64 12L63 12L63 11L65 11L65 8L63 8L63 9L62 9L62 10L63 10L63 11L62 11L62 12L61 12L61 11L60 11L60 13L59 13L59 11L58 11L58 9L57 9L57 8L56 8L56 9L57 9L57 10L56 10L56 11L57 11L57 12L56 12L56 13L54 13L54 11L55 11L55 10L54 10L54 11L53 11L53 13L52 13L52 14L51 14L51 13L50 13L50 14L51 14L51 15L53 15L53 13L54 13L54 15L55 15L55 16L56 16L56 17L58 17L58 16L60 16L60 17L61 17L61 19L58 19L58 20L57 20L57 21L55 21L55 20L54 20L54 21L55 21L55 22L54 22L54 23L55 23L55 22L56 22L56 23L58 23L58 24L52 24L52 26L50 26L50 24L51 24L51 23L53 23L53 21L52 21L52 19L55 19L55 17L54 17L54 16L53 16L53 17L52 17L52 16L51 16L51 17L48 17L48 18L49 18L49 19L48 19L48 20L49 20L49 19L50 19L50 20L51 20L51 21L50 21L50 22L49 22L49 21L47 21L47 23L46 23L46 24L45 24L45 25L44 25L44 23L45 23L45 20L44 20L44 19L45 19L45 18L44 18L44 15L45 15L45 14L44 14L44 13L43 13L43 12L40 12L40 13L39 13L39 11L43 11L43 8L42 8L42 10L41 10L41 8L39 8L39 6L38 6L38 8L39 8L39 9L36 9L36 10L37 10L37 11L38 11L38 12L37 12L37 13L39 13L39 15L38 15L38 16L37 16L37 17L36 17L36 18L35 18L35 17L34 17L34 16L32 16L32 17L31 17L31 16L30 16L30 15L31 15L31 14L30 14L30 15L29 15L29 14L27 14L27 13L28 13L28 12L27 12L27 13L26 13L26 12L25 12L25 11L24 11L24 9L23 9L23 8L25 8L25 6L24 6L24 7L23 7L23 6L22 6L22 7L21 7L21 6L20 6L20 7L19 7L19 6L18 6L18 8L22 8L22 9L17 9L17 8L16 8L16 7L17 7L17 6L16 6L16 7L15 7L15 6ZM28 6L28 7L29 7L29 6ZM50 6L50 7L51 7L51 6ZM68 6L68 7L69 7L69 6ZM72 6L72 7L73 7L73 6ZM86 6L86 7L87 7L87 6ZM90 6L90 7L91 7L91 6ZM79 7L79 8L78 8L78 9L79 9L79 10L77 10L77 9L76 9L76 10L75 10L75 11L79 11L79 12L80 12L80 11L79 11L79 10L80 10L80 7ZM11 8L11 9L12 9L12 8ZM46 8L46 9L47 9L47 8ZM54 8L54 9L55 9L55 8ZM90 8L90 9L91 9L91 8ZM95 8L95 9L96 9L96 8ZM97 8L97 9L98 9L98 8ZM2 9L2 10L1 10L1 11L2 11L2 10L4 10L4 9ZM16 9L16 10L17 10L17 9ZM22 9L22 11L23 11L23 12L22 12L22 13L23 13L23 14L22 14L22 15L23 15L23 16L24 16L24 13L25 13L25 16L26 16L26 18L25 18L25 17L24 17L24 18L23 18L23 19L22 19L22 18L21 18L21 19L20 19L20 22L21 22L21 23L17 23L17 25L16 25L16 23L15 23L15 25L16 25L16 26L17 26L17 27L16 27L16 28L17 28L17 27L18 27L18 28L19 28L19 30L20 30L20 28L19 28L19 27L21 27L21 26L22 26L22 27L26 27L26 25L27 25L27 24L26 24L26 25L24 25L24 23L27 23L27 22L28 22L28 21L29 21L29 23L28 23L28 24L29 24L29 26L31 26L31 27L32 27L32 28L33 28L33 27L37 27L37 24L36 24L36 23L37 23L37 20L38 20L38 23L39 23L39 24L38 24L38 25L39 25L39 26L38 26L38 27L39 27L39 28L40 28L40 29L41 29L41 31L39 31L39 32L38 32L38 31L37 31L37 33L39 33L39 32L41 32L41 33L40 33L40 34L43 34L43 35L40 35L40 37L38 37L38 39L37 39L37 36L38 36L38 35L39 35L39 34L38 34L38 35L37 35L37 34L35 34L35 33L34 33L34 35L37 35L37 36L34 36L34 37L35 37L35 38L34 38L34 39L35 39L35 41L34 41L34 40L33 40L33 39L32 39L32 42L30 42L30 43L32 43L32 44L33 44L33 45L34 45L34 46L33 46L33 47L35 47L35 48L36 48L36 47L37 47L37 46L38 46L38 47L39 47L39 46L40 46L40 45L41 45L41 46L42 46L42 45L43 45L43 43L42 43L42 42L41 42L41 43L40 43L40 42L37 42L37 41L38 41L38 39L39 39L39 41L41 41L41 39L39 39L39 38L40 38L40 37L41 37L41 38L43 38L43 42L44 42L44 40L46 40L46 41L48 41L48 40L49 40L49 42L50 42L50 44L49 44L49 43L48 43L48 42L46 42L46 43L44 43L44 44L45 44L45 47L44 47L44 48L46 48L46 47L48 47L48 48L47 48L47 50L46 50L46 49L45 49L45 51L44 51L44 50L43 50L43 51L42 51L42 49L41 49L41 51L40 51L40 52L39 52L39 53L38 53L38 54L37 54L37 53L35 53L35 52L33 52L33 53L34 53L34 54L33 54L33 55L32 55L32 56L33 56L33 57L31 57L31 58L30 58L30 59L29 59L29 57L28 57L28 59L27 59L27 60L28 60L28 59L29 59L29 60L30 60L30 59L32 59L32 62L33 62L33 63L32 63L32 64L33 64L33 65L34 65L34 67L35 67L35 69L34 69L34 68L33 68L33 67L32 67L32 66L31 66L31 65L30 65L30 64L31 64L31 61L28 61L28 62L27 62L27 61L26 61L26 62L24 62L24 61L25 61L25 60L24 60L24 61L22 61L22 63L23 63L23 64L18 64L18 65L20 65L20 66L21 66L21 67L23 67L23 65L24 65L24 63L26 63L26 64L25 64L25 65L26 65L26 66L24 66L24 67L26 67L26 66L27 66L27 65L28 65L28 66L30 66L30 68L31 68L31 69L30 69L30 70L31 70L31 71L32 71L32 72L31 72L31 76L30 76L30 75L25 75L25 74L26 74L26 71L25 71L25 68L22 68L22 69L24 69L24 70L21 70L21 69L19 69L19 68L20 68L20 67L18 67L18 69L17 69L17 70L18 70L18 69L19 69L19 70L21 70L21 71L20 71L20 72L21 72L21 73L19 73L19 74L18 74L18 75L19 75L19 76L18 76L18 78L19 78L19 76L20 76L20 78L21 78L21 79L19 79L19 80L21 80L21 81L22 81L22 80L21 80L21 79L23 79L23 82L24 82L24 83L25 83L25 82L24 82L24 81L25 81L25 80L24 80L24 79L25 79L25 78L26 78L26 77L25 77L25 76L27 76L27 77L28 77L28 76L29 76L29 77L33 77L33 79L32 79L32 78L28 78L28 79L30 79L30 80L31 80L31 79L32 79L32 82L33 82L33 83L37 83L37 84L38 84L38 83L39 83L39 85L40 85L40 84L41 84L41 85L43 85L43 86L46 86L46 87L47 87L47 86L46 86L46 85L47 85L47 84L46 84L46 85L44 85L44 84L45 84L45 83L42 83L42 81L43 81L43 82L44 82L44 80L45 80L45 79L47 79L47 80L48 80L48 81L47 81L47 82L46 82L46 81L45 81L45 82L46 82L46 83L47 83L47 82L48 82L48 81L49 81L49 80L48 80L48 78L49 78L49 79L50 79L50 78L51 78L51 77L52 77L52 76L53 76L53 75L48 75L48 73L47 73L47 74L45 74L45 75L44 75L44 74L43 74L43 73L44 73L44 72L45 72L45 71L47 71L47 72L48 72L48 71L47 71L47 68L45 68L45 67L44 67L44 66L43 66L43 67L40 67L40 68L39 68L39 69L38 69L38 67L39 67L39 65L38 65L38 63L39 63L39 64L41 64L41 65L40 65L40 66L41 66L41 65L43 65L43 64L44 64L44 65L45 65L45 63L44 63L44 62L45 62L45 61L46 61L46 63L47 63L47 62L49 62L49 60L47 60L47 61L46 61L46 60L45 60L45 59L44 59L44 62L43 62L43 59L42 59L42 60L41 60L41 59L39 59L39 58L40 58L40 57L41 57L41 58L43 58L43 57L44 57L44 58L46 58L46 59L47 59L47 58L49 58L49 57L48 57L48 56L49 56L49 55L48 55L48 54L50 54L50 57L51 57L51 58L50 58L50 61L51 61L51 60L53 60L53 61L52 61L52 62L50 62L50 65L49 65L49 68L50 68L50 69L48 69L48 70L50 70L50 69L51 69L51 68L50 68L50 67L51 67L51 66L56 66L56 65L58 65L58 64L57 64L57 63L56 63L56 62L55 62L55 61L56 61L56 60L57 60L57 59L61 59L61 60L62 60L62 61L61 61L61 62L60 62L60 61L59 61L59 60L58 60L58 63L59 63L59 65L60 65L60 66L58 66L58 67L56 67L56 68L54 68L54 69L52 69L52 70L53 70L53 72L54 72L54 73L53 73L53 74L55 74L55 75L54 75L54 76L55 76L55 77L57 77L57 75L63 75L63 76L62 76L62 77L63 77L63 78L62 78L62 79L63 79L63 80L61 80L61 81L60 81L60 79L61 79L61 78L60 78L60 77L61 77L61 76L60 76L60 77L59 77L59 76L58 76L58 77L59 77L59 78L58 78L58 79L56 79L56 78L55 78L55 79L53 79L53 78L52 78L52 79L53 79L53 81L54 81L54 82L55 82L55 83L53 83L53 82L52 82L52 83L51 83L51 85L50 85L50 86L51 86L51 87L53 87L53 86L55 86L55 87L54 87L54 88L55 88L55 87L56 87L56 86L57 86L57 85L58 85L58 84L57 84L57 83L63 83L63 84L59 84L59 86L62 86L62 87L61 87L61 88L62 88L62 87L63 87L63 86L62 86L62 85L63 85L63 84L65 84L65 87L66 87L66 86L67 86L67 85L66 85L66 84L67 84L67 83L68 83L68 86L69 86L69 85L70 85L70 84L71 84L71 82L69 82L69 81L71 81L71 79L72 79L72 78L73 78L73 79L74 79L74 78L75 78L75 76L74 76L74 78L73 78L73 77L71 77L71 79L70 79L70 80L69 80L69 79L68 79L68 78L70 78L70 76L71 76L71 75L70 75L70 72L69 72L69 71L70 71L70 70L72 70L72 69L73 69L73 70L74 70L74 69L75 69L75 70L76 70L76 69L77 69L77 71L75 71L75 75L76 75L76 76L77 76L77 77L76 77L76 78L78 78L78 76L79 76L79 75L78 75L78 76L77 76L77 75L76 75L76 72L77 72L77 71L78 71L78 74L80 74L80 72L81 72L81 71L83 71L83 70L84 70L84 71L87 71L87 70L86 70L86 69L87 69L87 68L86 68L86 67L87 67L87 66L86 66L86 65L87 65L87 64L86 64L86 65L85 65L85 66L86 66L86 67L85 67L85 68L82 68L82 69L83 69L83 70L81 70L81 71L80 71L80 70L79 70L79 69L78 69L78 68L79 68L79 67L80 67L80 68L81 68L81 67L80 67L80 66L79 66L79 67L76 67L76 68L74 68L74 67L73 67L73 66L72 66L72 67L71 67L71 68L70 68L70 70L69 70L69 71L64 71L64 70L63 70L63 69L65 69L65 67L63 67L63 66L64 66L64 65L65 65L65 66L66 66L66 64L67 64L67 63L66 63L66 62L67 62L67 61L69 61L69 62L71 62L71 61L73 61L73 62L72 62L72 63L73 63L73 62L74 62L74 61L75 61L75 60L74 60L74 59L75 59L75 58L76 58L76 56L73 56L73 55L74 55L74 54L73 54L73 55L71 55L71 56L72 56L72 57L73 57L73 60L72 60L72 59L71 59L71 61L69 61L69 60L70 60L70 59L68 59L68 58L71 58L71 57L68 57L68 56L70 56L70 55L68 55L68 54L69 54L69 53L70 53L70 54L71 54L71 53L70 53L70 51L68 51L68 50L70 50L70 47L68 47L68 46L67 46L67 47L66 47L66 44L67 44L67 43L68 43L68 40L70 40L70 39L69 39L69 38L68 38L68 37L66 37L66 36L67 36L67 35L68 35L68 34L69 34L69 33L68 33L68 32L67 32L67 31L68 31L68 30L67 30L67 31L66 31L66 29L65 29L65 31L64 31L64 29L63 29L63 30L62 30L62 31L61 31L61 29L60 29L60 30L59 30L59 29L58 29L58 30L57 30L57 27L61 27L61 28L62 28L62 27L63 27L63 28L67 28L67 29L69 29L69 28L70 28L70 27L68 27L68 26L67 26L67 27L66 27L66 26L65 26L65 27L63 27L63 26L64 26L64 25L63 25L63 24L62 24L62 23L63 23L63 22L64 22L64 21L65 21L65 19L64 19L64 20L63 20L63 21L59 21L59 20L58 20L58 21L59 21L59 22L58 22L58 23L59 23L59 24L60 24L60 23L61 23L61 24L62 24L62 27L61 27L61 25L60 25L60 26L59 26L59 25L53 25L53 26L55 26L55 27L54 27L54 29L53 29L53 32L52 32L52 34L49 34L49 31L48 31L48 32L47 32L47 33L46 33L46 32L45 32L45 31L44 31L44 30L45 30L45 29L44 29L44 28L46 28L46 29L47 29L47 28L46 28L46 27L47 27L47 26L45 26L45 27L44 27L44 25L43 25L43 23L39 23L39 20L38 20L38 19L39 19L39 17L41 17L41 18L42 18L42 17L43 17L43 15L44 15L44 14L43 14L43 15L39 15L39 17L37 17L37 18L36 18L36 19L37 19L37 20L34 20L34 21L33 21L33 23L32 23L32 22L31 22L31 21L32 21L32 20L33 20L33 19L35 19L35 18L34 18L34 17L33 17L33 19L32 19L32 20L31 20L31 19L28 19L28 21L27 21L27 20L26 20L26 19L27 19L27 16L29 16L29 15L27 15L27 14L26 14L26 13L25 13L25 12L24 12L24 11L23 11L23 9ZM39 9L39 10L38 10L38 11L39 11L39 10L40 10L40 9ZM59 9L59 10L60 10L60 9ZM63 9L63 10L64 10L64 9ZM6 10L6 11L7 11L7 10ZM13 10L13 11L14 11L14 12L13 12L13 13L14 13L14 14L15 14L15 15L14 15L14 17L15 17L15 18L14 18L14 21L18 21L18 19L19 19L19 18L20 18L20 15L21 15L21 13L17 13L17 14L16 14L16 11L14 11L14 10ZM19 10L19 12L21 12L21 11L20 11L20 10ZM46 10L46 11L47 11L47 10ZM73 10L73 11L71 11L71 12L73 12L73 11L74 11L74 10ZM17 11L17 12L18 12L18 11ZM32 11L32 12L33 12L33 11ZM92 11L92 12L93 12L93 11ZM6 12L6 13L7 13L7 12ZM14 12L14 13L15 13L15 12ZM57 12L57 13L58 13L58 12ZM40 13L40 14L41 14L41 13ZM61 13L61 14L57 14L57 15L56 15L56 14L55 14L55 15L56 15L56 16L58 16L58 15L61 15L61 16L62 16L62 19L63 19L63 18L67 18L67 17L66 17L66 16L65 16L65 15L63 15L63 14L64 14L64 13ZM76 13L76 14L77 14L77 13ZM88 13L88 14L89 14L89 13ZM3 14L3 15L4 15L4 14ZM5 14L5 15L7 15L7 14ZM11 14L11 15L10 15L10 17L9 17L9 18L8 18L8 20L7 20L7 19L6 19L6 20L7 20L7 21L12 21L12 20L11 20L11 15L12 15L12 17L13 17L13 15L12 15L12 14ZM18 14L18 15L17 15L17 16L16 16L16 15L15 15L15 17L16 17L16 19L18 19L18 18L19 18L19 17L17 17L17 16L18 16L18 15L19 15L19 14ZM32 14L32 15L33 15L33 14ZM26 15L26 16L27 16L27 15ZM62 15L62 16L63 16L63 17L64 17L64 16L63 16L63 15ZM82 15L82 17L81 17L81 18L80 18L80 19L79 19L79 18L76 18L76 17L75 17L75 19L74 19L74 20L76 20L76 19L79 19L79 20L78 20L78 21L81 21L81 22L80 22L80 23L81 23L81 24L83 24L83 23L84 23L84 21L85 21L85 19L86 19L86 22L87 22L87 23L89 23L89 21L88 21L88 20L87 20L87 19L86 19L86 18L87 18L87 15L86 15L86 16L85 16L85 15ZM91 15L91 16L90 16L90 17L89 17L89 18L88 18L88 19L89 19L89 20L90 20L90 21L91 21L91 20L90 20L90 19L92 19L92 20L93 20L93 18L95 18L95 17L92 17L92 16L93 16L93 15ZM21 16L21 17L22 17L22 16ZM41 16L41 17L42 17L42 16ZM83 16L83 17L82 17L82 18L81 18L81 19L80 19L80 20L81 20L81 19L83 19L83 20L82 20L82 21L84 21L84 19L85 19L85 18L86 18L86 17L85 17L85 16ZM96 16L96 17L97 17L97 16ZM28 17L28 18L29 18L29 17ZM53 17L53 18L54 18L54 17ZM84 17L84 18L85 18L85 17ZM90 17L90 18L92 18L92 17ZM9 18L9 20L10 20L10 18ZM12 18L12 19L13 19L13 18ZM37 18L37 19L38 19L38 18ZM50 18L50 19L51 19L51 18ZM56 18L56 19L57 19L57 18ZM96 18L96 20L94 20L94 21L96 21L96 20L98 20L98 19L97 19L97 18ZM21 19L21 22L23 22L23 23L24 23L24 20L25 20L25 21L26 21L26 22L27 22L27 21L26 21L26 20L25 20L25 19L24 19L24 20L22 20L22 19ZM40 19L40 20L41 20L41 21L40 21L40 22L42 22L42 20L43 20L43 21L44 21L44 20L43 20L43 19ZM66 19L66 22L67 22L67 19ZM68 19L68 22L69 22L69 21L71 21L71 20L69 20L69 19ZM30 20L30 21L31 21L31 20ZM35 21L35 22L36 22L36 21ZM51 21L51 22L50 22L50 23L51 23L51 22L52 22L52 21ZM74 21L74 22L75 22L75 21ZM87 21L87 22L88 22L88 21ZM30 22L30 23L29 23L29 24L30 24L30 25L31 25L31 26L32 26L32 27L33 27L33 26L32 26L32 25L31 25L31 24L30 24L30 23L31 23L31 22ZM48 22L48 25L49 25L49 22ZM81 22L81 23L83 23L83 22ZM34 23L34 24L33 24L33 25L34 25L34 26L36 26L36 24L35 24L35 23ZM76 23L76 24L77 24L77 23ZM19 24L19 25L17 25L17 26L21 26L21 25L22 25L22 26L24 26L24 25L22 25L22 24ZM34 24L34 25L35 25L35 24ZM40 24L40 26L39 26L39 27L41 27L41 25L42 25L42 27L43 27L43 25L42 25L42 24ZM46 24L46 25L47 25L47 24ZM96 24L96 25L97 25L97 24ZM76 25L76 26L79 26L79 25ZM1 26L1 27L2 27L2 26ZM56 26L56 27L55 27L55 29L54 29L54 31L55 31L55 32L54 32L54 33L55 33L55 34L54 34L54 35L53 35L53 34L52 34L52 35L51 35L51 36L50 36L50 37L49 37L49 34L48 34L48 33L47 33L47 34L48 34L48 35L46 35L46 33L43 33L43 32L42 32L42 31L43 31L43 30L42 30L42 31L41 31L41 32L42 32L42 33L43 33L43 34L44 34L44 35L43 35L43 36L44 36L44 35L45 35L45 37L47 37L47 39L46 39L46 40L48 40L48 37L49 37L49 38L50 38L50 39L49 39L49 40L50 40L50 39L51 39L51 40L53 40L53 37L54 37L54 39L55 39L55 37L56 37L56 39L57 39L57 37L58 37L58 36L59 36L59 38L61 38L61 37L62 37L62 36L63 36L63 35L65 35L65 36L64 36L64 38L63 38L63 39L62 39L62 40L61 40L61 39L58 39L58 40L57 40L57 41L55 41L55 42L53 42L53 43L52 43L52 41L50 41L50 42L51 42L51 44L50 44L50 45L49 45L49 44L48 44L48 43L46 43L46 46L47 46L47 44L48 44L48 45L49 45L49 46L48 46L48 47L49 47L49 46L51 46L51 48L48 48L48 50L47 50L47 51L46 51L46 52L44 52L44 51L43 51L43 52L44 52L44 54L43 54L43 53L42 53L42 52L41 52L41 53L42 53L42 54L39 54L39 55L38 55L38 56L39 56L39 57L37 57L37 55L33 55L33 56L34 56L34 58L39 58L39 57L40 57L40 56L39 56L39 55L43 55L43 56L42 56L42 57L43 57L43 56L44 56L44 55L45 55L45 54L47 54L47 53L46 53L46 52L47 52L47 51L48 51L48 53L50 53L50 54L51 54L51 55L52 55L52 56L51 56L51 57L54 57L54 56L53 56L53 55L52 55L52 54L51 54L51 53L54 53L54 55L55 55L55 58L54 58L54 59L55 59L55 60L54 60L54 61L55 61L55 60L56 60L56 59L57 59L57 58L56 58L56 57L58 57L58 58L59 58L59 57L60 57L60 56L61 56L61 57L63 57L63 59L62 59L62 58L61 58L61 59L62 59L62 60L63 60L63 61L62 61L62 62L61 62L61 63L60 63L60 65L62 65L62 66L63 66L63 65L64 65L64 63L65 63L65 64L66 64L66 63L65 63L65 62L64 62L64 61L65 61L65 60L63 60L63 59L65 59L65 58L64 58L64 57L66 57L66 59L67 59L67 60L66 60L66 61L67 61L67 60L68 60L68 59L67 59L67 57L66 57L66 56L63 56L63 55L62 55L62 56L61 56L61 54L60 54L60 52L61 52L61 53L63 53L63 54L65 54L65 53L66 53L66 52L64 52L64 53L63 53L63 51L62 51L62 52L61 52L61 51L57 51L57 50L59 50L59 49L53 49L53 48L54 48L54 47L55 47L55 46L51 46L51 44L53 44L53 43L55 43L55 44L54 44L54 45L55 45L55 44L56 44L56 45L58 45L58 46L56 46L56 47L57 47L57 48L61 48L61 47L62 47L62 48L63 48L63 49L62 49L62 50L64 50L64 51L65 51L65 50L64 50L64 49L66 49L66 51L67 51L67 54L66 54L66 55L67 55L67 54L68 54L68 53L69 53L69 52L68 52L68 51L67 51L67 49L66 49L66 48L63 48L63 47L65 47L65 46L63 46L63 45L62 45L62 46L61 46L61 43L60 43L60 42L61 42L61 41L63 41L63 43L62 43L62 44L63 44L63 43L65 43L65 44L66 44L66 43L67 43L67 40L68 40L68 38L65 38L65 36L66 36L66 35L67 35L67 32L64 32L64 31L62 31L62 32L61 32L61 31L60 31L60 32L61 32L61 33L60 33L60 34L62 34L62 33L63 33L63 35L58 35L58 34L59 34L59 33L58 33L58 32L59 32L59 31L58 31L58 32L56 32L56 31L57 31L57 30L56 30L56 27L57 27L57 26ZM5 27L5 30L8 30L8 27ZM27 27L27 30L30 30L30 27ZM49 27L49 30L52 30L52 27ZM71 27L71 30L74 30L74 27ZM93 27L93 30L96 30L96 27ZM6 28L6 29L7 29L7 28ZM22 28L22 29L23 29L23 30L22 30L22 31L23 31L23 30L24 30L24 31L26 31L26 30L24 30L24 29L23 29L23 28ZM25 28L25 29L26 29L26 28ZM28 28L28 29L29 29L29 28ZM42 28L42 29L43 29L43 28ZM50 28L50 29L51 29L51 28ZM72 28L72 29L73 29L73 28ZM94 28L94 29L95 29L95 28ZM16 29L16 30L15 30L15 32L16 32L16 30L17 30L17 29ZM97 29L97 31L98 31L98 32L99 32L99 31L98 31L98 30L99 30L99 29ZM46 30L46 31L47 31L47 30ZM55 30L55 31L56 31L56 30ZM81 30L81 31L83 31L83 30ZM19 31L19 32L17 32L17 34L18 34L18 33L19 33L19 34L20 34L20 33L19 33L19 32L21 32L21 33L22 33L22 32L21 32L21 31ZM50 31L50 32L51 32L51 31ZM86 31L86 32L87 32L87 31ZM91 32L91 33L90 33L90 35L92 35L92 34L91 34L91 33L92 33L92 32ZM1 33L1 35L2 35L2 36L1 36L1 37L2 37L2 36L3 36L3 37L4 37L4 36L3 36L3 35L2 35L2 33ZM15 33L15 34L16 34L16 33ZM64 33L64 34L65 34L65 33ZM76 33L76 34L77 34L77 33ZM87 33L87 34L88 34L88 35L89 35L89 33ZM7 34L7 35L8 35L8 34ZM74 34L74 36L75 36L75 34ZM98 34L98 35L99 35L99 34ZM9 35L9 36L10 36L10 35ZM54 35L54 37L55 37L55 35ZM56 35L56 36L58 36L58 35ZM17 36L17 37L18 37L18 36ZM47 36L47 37L48 37L48 36ZM52 36L52 37L53 37L53 36ZM60 36L60 37L61 37L61 36ZM86 36L86 37L85 37L85 38L87 38L87 39L86 39L86 40L87 40L87 39L89 39L89 38L88 38L88 37L87 37L87 36ZM21 37L21 38L22 38L22 37ZM30 37L30 38L31 38L31 37ZM43 37L43 38L44 38L44 39L45 39L45 38L44 38L44 37ZM5 38L5 39L7 39L7 40L6 40L6 41L7 41L7 40L9 40L9 39L10 39L10 40L12 40L12 39L10 39L10 38ZM72 38L72 39L73 39L73 38ZM36 39L36 41L35 41L35 42L36 42L36 41L37 41L37 39ZM63 39L63 40L65 40L65 41L66 41L66 40L67 40L67 39L66 39L66 40L65 40L65 39ZM79 39L79 40L80 40L80 41L81 41L81 40L80 40L80 39ZM96 39L96 40L97 40L97 39ZM22 40L22 41L23 41L23 40ZM30 40L30 41L31 41L31 40ZM58 40L58 41L59 41L59 42L57 42L57 43L56 43L56 44L58 44L58 45L59 45L59 44L58 44L58 43L59 43L59 42L60 42L60 41L61 41L61 40ZM8 41L8 42L10 42L10 41ZM33 41L33 42L32 42L32 43L33 43L33 44L35 44L35 46L37 46L37 43L34 43L34 41ZM73 41L73 42L74 42L74 44L73 44L73 43L72 43L72 44L73 44L73 45L74 45L74 44L75 44L75 42L76 42L76 41L75 41L75 42L74 42L74 41ZM96 41L96 42L97 42L97 41ZM3 42L3 43L4 43L4 42ZM27 42L27 44L28 44L28 42ZM65 42L65 43L66 43L66 42ZM38 43L38 44L39 44L39 45L38 45L38 46L39 46L39 45L40 45L40 44L39 44L39 43ZM76 43L76 44L78 44L78 46L79 46L79 47L78 47L78 48L79 48L79 47L80 47L80 48L81 48L81 47L80 47L80 46L79 46L79 43ZM41 44L41 45L42 45L42 44ZM88 44L88 45L87 45L87 46L88 46L88 45L89 45L89 44ZM91 44L91 45L92 45L92 44ZM94 44L94 45L95 45L95 44ZM82 45L82 47L83 47L83 45ZM7 46L7 47L5 47L5 48L7 48L7 47L8 47L8 46ZM58 46L58 47L61 47L61 46ZM62 46L62 47L63 47L63 46ZM75 46L75 47L74 47L74 48L75 48L75 53L76 53L76 52L77 52L77 53L79 53L79 51L77 51L77 50L76 50L76 48L77 48L77 47L76 47L76 46ZM14 47L14 48L15 48L15 47ZM22 48L22 49L19 49L19 50L20 50L20 51L18 51L18 50L17 50L17 51L16 51L16 52L20 52L20 51L21 51L21 52L23 52L23 53L24 53L24 52L23 52L23 51L25 51L25 52L26 52L26 51L25 51L25 50L26 50L26 49L25 49L25 48ZM68 48L68 49L69 49L69 48ZM97 48L97 49L98 49L98 48ZM5 49L5 52L8 52L8 49ZM9 49L9 50L10 50L10 49ZM13 49L13 50L15 50L15 49ZM24 49L24 50L25 50L25 49ZM27 49L27 52L30 52L30 49ZM49 49L49 52L52 52L52 49ZM60 49L60 50L61 50L61 49ZM71 49L71 52L74 52L74 49ZM93 49L93 52L96 52L96 49ZM0 50L0 52L1 52L1 50ZM6 50L6 51L7 51L7 50ZM21 50L21 51L22 51L22 50ZM28 50L28 51L29 51L29 50ZM50 50L50 51L51 51L51 50ZM55 50L55 51L53 51L53 52L54 52L54 53L57 53L57 51L56 51L56 50ZM72 50L72 51L73 51L73 50ZM94 50L94 51L95 51L95 50ZM2 51L2 52L3 52L3 51ZM55 51L55 52L56 52L56 51ZM80 51L80 53L81 53L81 51ZM98 51L98 52L97 52L97 53L98 53L98 52L99 52L99 51ZM89 52L89 53L90 53L90 52ZM57 54L57 55L56 55L56 56L57 56L57 55L59 55L59 54ZM46 55L46 56L45 56L45 57L46 57L46 58L47 58L47 57L46 57L46 56L48 56L48 55ZM100 55L100 58L101 58L101 55ZM1 56L1 57L2 57L2 56ZM14 56L14 58L15 58L15 56ZM35 56L35 57L36 57L36 56ZM84 56L84 57L83 57L83 58L82 58L82 59L83 59L83 58L84 58L84 57L85 57L85 56ZM96 56L96 57L97 57L97 56ZM98 56L98 57L99 57L99 56ZM26 57L26 58L27 58L27 57ZM74 57L74 58L75 58L75 57ZM32 58L32 59L33 59L33 60L34 60L34 61L33 61L33 62L34 62L34 61L37 61L37 63L36 63L36 62L35 62L35 63L33 63L33 64L34 64L34 65L35 65L35 67L36 67L36 68L37 68L37 67L38 67L38 65L37 65L37 67L36 67L36 65L35 65L35 64L37 64L37 63L38 63L38 62L39 62L39 63L40 63L40 61L41 61L41 60L39 60L39 59L38 59L38 60L37 60L37 59L33 59L33 58ZM52 58L52 59L53 59L53 58ZM95 58L95 59L96 59L96 58ZM98 59L98 60L97 60L97 61L98 61L98 60L99 60L99 61L100 61L100 60L99 60L99 59ZM38 60L38 61L39 61L39 60ZM73 60L73 61L74 61L74 60ZM76 61L76 62L77 62L77 61ZM82 61L82 62L83 62L83 61ZM84 61L84 62L85 62L85 61ZM20 62L20 63L21 63L21 62ZM26 62L26 63L27 63L27 62ZM41 62L41 63L43 63L43 62ZM53 62L53 63L52 63L52 64L51 64L51 65L50 65L50 66L51 66L51 65L53 65L53 64L54 64L54 63L55 63L55 65L56 65L56 63L55 63L55 62ZM62 62L62 63L61 63L61 64L62 64L62 63L63 63L63 62ZM80 62L80 63L81 63L81 62ZM28 63L28 65L29 65L29 63ZM48 63L48 64L46 64L46 65L48 65L48 64L49 64L49 63ZM26 64L26 65L27 65L27 64ZM77 64L77 65L78 65L78 64ZM90 64L90 65L91 65L91 64ZM16 66L16 68L15 68L15 67L13 67L13 68L15 68L15 70L16 70L16 68L17 68L17 66ZM46 66L46 67L47 67L47 66ZM67 66L67 67L66 67L66 68L67 68L67 67L68 67L68 66ZM94 66L94 67L97 67L97 66ZM28 67L28 68L29 68L29 67ZM43 67L43 68L44 68L44 67ZM52 67L52 68L53 68L53 67ZM58 67L58 68L56 68L56 71L57 71L57 72L56 72L56 73L57 73L57 72L59 72L59 71L58 71L58 70L61 70L61 71L60 71L60 73L59 73L59 74L60 74L60 73L61 73L61 72L63 72L63 73L62 73L62 74L64 74L64 75L65 75L65 74L66 74L66 75L67 75L67 76L66 76L66 77L69 77L69 76L70 76L70 75L69 75L69 74L67 74L67 73L66 73L66 72L64 72L64 71L62 71L62 70L61 70L61 67ZM62 67L62 68L63 68L63 67ZM72 67L72 68L73 68L73 69L74 69L74 68L73 68L73 67ZM6 68L6 69L7 69L7 68ZM26 68L26 70L29 70L29 69L27 69L27 68ZM32 68L32 69L31 69L31 70L32 70L32 71L33 71L33 72L32 72L32 73L33 73L33 74L32 74L32 75L33 75L33 77L35 77L35 76L38 76L38 77L36 77L36 78L35 78L35 79L34 79L34 81L33 81L33 82L34 82L34 81L35 81L35 80L37 80L37 79L38 79L38 80L39 80L39 79L41 79L41 78L40 78L40 77L39 77L39 75L41 75L41 77L42 77L42 79L43 79L43 80L44 80L44 79L45 79L45 78L47 78L47 77L48 77L48 76L47 76L47 75L46 75L46 76L44 76L44 75L43 75L43 74L42 74L42 75L41 75L41 74L39 74L39 73L40 73L40 72L39 72L39 71L41 71L41 72L42 72L42 73L43 73L43 70L42 70L42 69L40 69L40 70L39 70L39 71L38 71L38 69L36 69L36 70L37 70L37 71L36 71L36 72L39 72L39 73L38 73L38 74L39 74L39 75L33 75L33 74L35 74L35 73L34 73L34 72L35 72L35 71L34 71L34 69L33 69L33 68ZM58 68L58 69L59 69L59 68ZM32 69L32 70L33 70L33 69ZM45 69L45 70L44 70L44 71L45 71L45 70L46 70L46 69ZM54 69L54 71L55 71L55 69ZM84 69L84 70L85 70L85 69ZM78 70L78 71L79 71L79 70ZM90 70L90 71L91 71L91 70ZM98 70L98 71L99 71L99 70ZM5 71L5 74L8 74L8 71ZM13 71L13 72L14 72L14 73L15 73L15 72L17 72L17 73L18 73L18 72L17 72L17 71L15 71L15 72L14 72L14 71ZM21 71L21 72L22 72L22 73L21 73L21 75L20 75L20 76L21 76L21 78L24 78L24 76L25 76L25 75L22 75L22 73L23 73L23 74L25 74L25 71ZM27 71L27 74L30 74L30 71ZM49 71L49 74L52 74L52 71ZM71 71L71 74L74 74L74 71ZM93 71L93 74L96 74L96 71ZM6 72L6 73L7 73L7 72ZM28 72L28 73L29 73L29 72ZM50 72L50 73L51 73L51 72ZM68 72L68 73L69 73L69 72ZM72 72L72 73L73 73L73 72ZM84 72L84 73L85 73L85 72ZM94 72L94 73L95 73L95 72ZM3 73L3 74L4 74L4 73ZM36 73L36 74L37 74L37 73ZM64 73L64 74L65 74L65 73ZM87 73L87 74L88 74L88 73ZM56 74L56 75L57 75L57 74ZM97 74L97 75L98 75L98 76L95 76L95 77L98 77L98 76L99 76L99 77L100 77L100 76L99 76L99 74ZM6 75L6 76L7 76L7 75ZM42 75L42 77L44 77L44 76L43 76L43 75ZM68 75L68 76L69 76L69 75ZM80 75L80 76L81 76L81 75ZM86 75L86 76L87 76L87 75ZM22 76L22 77L23 77L23 76ZM46 76L46 77L47 77L47 76ZM50 76L50 77L49 77L49 78L50 78L50 77L51 77L51 76ZM63 76L63 77L64 77L64 79L65 79L65 76ZM82 76L82 77L83 77L83 76ZM38 77L38 79L39 79L39 77ZM88 77L88 78L89 78L89 77ZM36 78L36 79L37 79L37 78ZM43 78L43 79L44 79L44 78ZM66 78L66 79L67 79L67 78ZM79 78L79 79L75 79L75 80L76 80L76 81L74 81L74 80L72 80L72 82L75 82L75 84L77 84L77 87L78 87L78 86L79 86L79 85L78 85L78 84L79 84L79 83L80 83L80 84L81 84L81 83L80 83L80 82L79 82L79 81L81 81L81 79L80 79L80 78ZM92 78L92 79L91 79L91 80L90 80L90 81L91 81L91 80L92 80L92 81L93 81L93 82L95 82L95 81L94 81L94 80L95 80L95 79L94 79L94 80L93 80L93 78ZM58 79L58 80L56 80L56 81L59 81L59 82L60 82L60 81L59 81L59 79ZM9 80L9 81L10 81L10 80ZM41 80L41 81L38 81L38 82L39 82L39 83L41 83L41 81L42 81L42 80ZM51 80L51 81L50 81L50 82L51 82L51 81L52 81L52 80ZM64 80L64 83L65 83L65 80ZM66 80L66 81L67 81L67 82L66 82L66 83L67 83L67 82L68 82L68 83L69 83L69 84L70 84L70 83L69 83L69 82L68 82L68 81L69 81L69 80L68 80L68 81L67 81L67 80ZM77 80L77 81L78 81L78 80ZM19 81L19 82L18 82L18 84L19 84L19 85L20 85L20 84L21 84L21 83L22 83L22 82L21 82L21 83L20 83L20 81ZM62 81L62 82L63 82L63 81ZM88 81L88 82L87 82L87 83L86 83L86 84L87 84L87 85L86 85L86 86L87 86L87 85L89 85L89 84L90 84L90 85L91 85L91 84L94 84L94 85L95 85L95 84L96 84L96 83L92 83L92 82L90 82L90 83L89 83L89 81ZM96 81L96 82L97 82L97 81ZM2 82L2 83L1 83L1 84L2 84L2 83L3 83L3 84L4 84L4 85L5 85L5 87L6 87L6 88L8 88L8 87L6 87L6 86L7 86L7 85L6 85L6 84L4 84L4 82ZM56 82L56 83L55 83L55 84L54 84L54 85L55 85L55 86L56 86L56 83L57 83L57 82ZM77 82L77 84L78 84L78 83L79 83L79 82ZM73 83L73 84L74 84L74 83ZM87 83L87 84L89 84L89 83ZM90 83L90 84L91 84L91 83ZM29 84L29 85L28 85L28 86L31 86L31 84ZM99 84L99 85L100 85L100 84ZM51 85L51 86L53 86L53 85ZM74 85L74 86L75 86L75 85ZM80 85L80 86L81 86L81 85ZM18 86L18 87L20 87L20 88L19 88L19 89L20 89L20 90L21 90L21 89L20 89L20 88L21 88L21 87L20 87L20 86ZM26 86L26 87L27 87L27 86ZM0 87L0 92L1 92L1 87ZM2 87L2 89L4 89L4 88L3 88L3 87ZM29 87L29 88L30 88L30 87ZM32 87L32 90L33 90L33 89L34 89L34 88L33 88L33 87ZM44 87L44 88L45 88L45 87ZM99 87L99 88L98 88L98 89L99 89L99 90L101 90L101 89L100 89L100 88L101 88L101 87ZM26 88L26 89L27 89L27 90L29 90L29 89L27 89L27 88ZM46 88L46 89L47 89L47 88ZM51 88L51 89L52 89L52 88ZM74 88L74 89L76 89L76 88ZM4 91L4 92L5 92L5 91ZM84 91L84 92L85 92L85 91ZM86 91L86 92L87 92L87 91ZM95 91L95 92L97 92L97 91ZM62 92L62 93L63 93L63 92ZM9 93L9 94L10 94L10 93ZM23 93L23 94L21 94L21 95L23 95L23 94L24 94L24 95L26 95L26 94L25 94L25 93ZM27 93L27 96L30 96L30 93ZM35 93L35 94L36 94L36 93ZM49 93L49 96L52 96L52 93ZM71 93L71 96L74 96L74 93ZM93 93L93 96L96 96L96 93ZM98 93L98 94L97 94L97 95L98 95L98 94L99 94L99 93ZM28 94L28 95L29 95L29 94ZM50 94L50 95L51 95L51 94ZM72 94L72 95L73 95L73 94ZM79 94L79 95L80 95L80 94ZM85 94L85 95L84 95L84 97L85 97L85 96L86 96L86 94ZM94 94L94 95L95 95L95 94ZM19 95L19 96L18 96L18 97L21 97L21 96L20 96L20 95ZM40 95L40 96L42 96L42 97L41 97L41 98L44 98L44 97L43 97L43 95ZM55 95L55 96L56 96L56 95ZM9 96L9 97L10 97L10 96ZM88 96L88 97L89 97L89 96ZM97 96L97 97L96 97L96 98L98 98L98 96ZM28 97L28 98L29 98L29 97ZM48 97L48 99L49 99L49 97ZM12 99L12 100L13 100L13 99ZM19 99L19 100L18 100L18 101L19 101L19 100L20 100L20 101L21 101L21 100L20 100L20 99ZM36 99L36 101L38 101L38 100L39 100L39 99L38 99L38 100L37 100L37 99ZM41 100L41 101L42 101L42 100ZM77 100L77 101L78 101L78 100ZM91 100L91 101L92 101L92 100ZM0 0L0 7L7 7L7 0ZM1 1L1 6L6 6L6 1ZM2 2L2 5L5 5L5 2ZM94 0L94 7L101 7L101 0ZM95 1L95 6L100 6L100 1ZM96 2L96 5L99 5L99 2ZM0 94L0 101L7 101L7 94ZM1 95L1 100L6 100L6 95ZM2 96L2 99L5 99L5 96Z" fill="#000000"/></g></g></svg>
