<?xml version="1.0" encoding="UTF-8"?>
<svg xmlns="http://www.w3.org/2000/svg" version="1.1" width="150" height="150" viewBox="0 0 150 150"><rect x="0" y="0" width="150" height="150" fill="#ffffff"/><g transform="scale(4.545)"><g transform="translate(0,0)"><path fill-rule="evenodd" d="M8 0L8 1L11 1L11 3L10 3L10 2L9 2L9 3L10 3L10 5L9 5L9 6L8 6L8 8L9 8L9 9L10 9L10 10L9 10L9 11L8 11L8 9L7 9L7 8L6 8L6 9L5 9L5 8L3 8L3 9L2 9L2 8L0 8L0 9L2 9L2 11L1 11L1 10L0 10L0 11L1 11L1 12L0 12L0 13L1 13L1 14L0 14L0 15L1 15L1 16L2 16L2 17L3 17L3 18L4 18L4 21L3 21L3 22L2 22L2 23L3 23L3 24L1 24L1 21L2 21L2 20L3 20L3 19L1 19L1 21L0 21L0 25L4 25L4 22L5 22L5 20L6 20L6 21L7 21L7 22L6 22L6 23L5 23L5 25L8 25L8 26L9 26L9 27L10 27L10 28L8 28L8 30L9 30L9 31L8 31L8 33L10 33L10 32L11 32L11 31L12 31L12 33L15 33L15 32L16 32L16 33L18 33L18 32L17 32L17 29L16 29L16 28L17 28L17 26L18 26L18 27L19 27L19 28L20 28L20 29L18 29L18 30L19 30L19 31L20 31L20 33L21 33L21 30L20 30L20 29L21 29L21 27L20 27L20 26L22 26L22 25L20 25L20 24L19 24L19 25L17 25L17 26L16 26L16 25L14 25L14 19L15 19L15 24L18 24L18 23L19 23L19 22L21 22L21 23L22 23L22 24L23 24L23 29L22 29L22 31L23 31L23 32L22 32L22 33L25 33L25 32L27 32L27 33L29 33L29 31L30 31L30 32L33 32L33 29L32 29L32 28L33 28L33 27L32 27L32 28L31 28L31 27L30 27L30 28L31 28L31 31L30 31L30 29L29 29L29 25L30 25L30 26L31 26L31 25L32 25L32 24L33 24L33 22L32 22L32 23L31 23L31 21L32 21L32 19L33 19L33 17L32 17L32 16L31 16L31 15L28 15L28 17L27 17L27 16L26 16L26 18L25 18L25 20L28 20L28 19L29 19L29 20L31 20L31 21L25 21L25 23L24 23L24 21L23 21L23 22L21 22L21 21L20 21L20 20L21 20L21 18L23 18L23 19L24 19L24 18L23 18L23 17L25 17L25 16L22 16L22 17L21 17L21 16L19 16L19 15L20 15L20 14L21 14L21 15L22 15L22 14L21 14L21 12L20 12L20 11L21 11L21 10L20 10L20 9L18 9L18 8L21 8L21 5L22 5L22 3L23 3L23 4L24 4L24 5L23 5L23 6L22 6L22 8L24 8L24 9L23 9L23 10L22 10L22 12L23 12L23 11L24 11L24 12L26 12L26 13L25 13L25 14L26 14L26 15L27 15L27 14L28 14L28 13L27 13L27 12L29 12L29 13L30 13L30 14L32 14L32 13L30 13L30 12L33 12L33 10L30 10L30 9L27 9L27 8L26 8L26 9L27 9L27 12L26 12L26 11L25 11L25 3L23 3L23 2L22 2L22 1L23 1L23 0L21 0L21 1L18 1L18 0L17 0L17 2L16 2L16 4L17 4L17 5L16 5L16 7L15 7L15 2L14 2L14 1L12 1L12 0ZM24 0L24 2L25 2L25 0ZM12 2L12 4L14 4L14 3L13 3L13 2ZM17 2L17 3L18 3L18 6L17 6L17 7L16 7L16 8L18 8L18 6L19 6L19 7L20 7L20 5L21 5L21 4L20 4L20 5L19 5L19 3L20 3L20 2ZM10 5L10 6L9 6L9 7L10 7L10 9L11 9L11 10L10 10L10 11L9 11L9 12L7 12L7 11L6 11L6 12L7 12L7 13L6 13L6 14L5 14L5 15L6 15L6 16L7 16L7 17L6 17L6 18L5 18L5 16L4 16L4 15L3 15L3 17L4 17L4 18L5 18L5 19L6 19L6 20L7 20L7 21L8 21L8 20L7 20L7 19L6 19L6 18L7 18L7 17L8 17L8 18L9 18L9 24L8 24L8 25L9 25L9 26L10 26L10 20L11 20L11 19L12 19L12 21L11 21L11 22L12 22L12 23L13 23L13 22L12 22L12 21L13 21L13 19L12 19L12 18L17 18L17 17L18 17L18 19L16 19L16 20L18 20L18 21L17 21L17 22L16 22L16 23L18 23L18 21L19 21L19 20L20 20L20 19L19 19L19 16L18 16L18 15L19 15L19 14L20 14L20 13L19 13L19 11L20 11L20 10L19 10L19 11L18 11L18 12L17 12L17 9L15 9L15 10L16 10L16 11L15 11L15 12L17 12L17 14L16 14L16 13L13 13L13 12L14 12L14 9L12 9L12 6L13 6L13 8L14 8L14 6L13 6L13 5L12 5L12 6L11 6L11 5ZM10 6L10 7L11 7L11 6ZM23 6L23 7L24 7L24 6ZM32 8L32 9L33 9L33 8ZM3 9L3 11L4 11L4 13L3 13L3 12L2 12L2 13L3 13L3 14L4 14L4 13L5 13L5 9ZM6 9L6 10L7 10L7 9ZM12 10L12 11L13 11L13 10ZM28 10L28 11L29 11L29 12L30 12L30 10ZM9 12L9 13L7 13L7 14L6 14L6 15L7 15L7 16L8 16L8 15L9 15L9 13L10 13L10 14L11 14L11 12ZM12 13L12 14L13 14L13 13ZM23 13L23 14L24 14L24 13ZM26 13L26 14L27 14L27 13ZM14 14L14 15L12 15L12 16L11 16L11 17L10 17L10 16L9 16L9 17L10 17L10 19L11 19L11 18L12 18L12 17L13 17L13 16L15 16L15 17L17 17L17 16L15 16L15 15L16 15L16 14ZM29 16L29 17L31 17L31 18L30 18L30 19L32 19L32 17L31 17L31 16ZM0 17L0 18L1 18L1 17ZM20 17L20 18L21 18L21 17ZM27 18L27 19L28 19L28 18ZM7 22L7 23L6 23L6 24L7 24L7 23L8 23L8 22ZM29 22L29 23L27 23L27 24L29 24L29 23L30 23L30 22ZM25 23L25 24L26 24L26 23ZM30 24L30 25L31 25L31 24ZM11 25L11 26L13 26L13 25ZM19 25L19 26L20 26L20 25ZM25 25L25 28L28 28L28 25ZM14 26L14 27L12 27L12 28L10 28L10 29L9 29L9 30L11 30L11 29L14 29L14 28L15 28L15 26ZM26 26L26 27L27 27L27 26ZM23 29L23 30L25 30L25 29ZM26 29L26 31L27 31L27 32L28 32L28 29ZM12 30L12 31L13 31L13 32L14 32L14 31L15 31L15 30ZM9 31L9 32L10 32L10 31ZM24 31L24 32L25 32L25 31ZM0 0L0 7L7 7L7 0ZM1 1L1 6L6 6L6 1ZM2 2L2 5L5 5L5 2ZM26 0L26 7L33 7L33 0ZM27 1L27 6L32 6L32 1ZM28 2L28 5L31 5L31 2ZM0 26L0 33L7 33L7 26ZM1 27L1 32L6 32L6 27ZM2 28L2 31L5 31L5 28Z" fill="#000000"/></g></g></svg>
