<?xml version="1.0" encoding="UTF-8"?>
<svg xmlns="http://www.w3.org/2000/svg" version="1.1" width="150" height="150" viewBox="0 0 150 150"><rect x="0" y="0" width="150" height="150" fill="#ffffff"/><g transform="scale(4.054)"><g transform="translate(0,0)"><path fill-rule="evenodd" d="M8 0L8 4L9 4L9 5L8 5L8 7L9 7L9 6L10 6L10 9L9 9L9 10L8 10L8 9L7 9L7 8L4 8L4 9L2 9L2 8L0 8L0 9L1 9L1 10L0 10L0 11L2 11L2 10L4 10L4 11L3 11L3 12L4 12L4 11L5 11L5 14L4 14L4 15L3 15L3 13L2 13L2 14L0 14L0 15L1 15L1 16L0 16L0 19L1 19L1 20L0 20L0 21L3 21L3 23L2 23L2 26L4 26L4 24L5 24L5 25L7 25L7 26L5 26L5 28L4 28L4 29L5 29L5 28L6 28L6 29L8 29L8 30L11 30L11 31L8 31L8 33L9 33L9 35L8 35L8 37L12 37L12 36L13 36L13 37L15 37L15 35L16 35L16 36L17 36L17 37L18 37L18 36L20 36L20 37L23 37L23 36L22 36L22 34L23 34L23 35L24 35L24 34L25 34L25 35L26 35L26 37L28 37L28 35L27 35L27 34L29 34L29 35L30 35L30 36L31 36L31 37L33 37L33 36L32 36L32 34L31 34L31 33L33 33L33 31L34 31L34 32L35 32L35 31L34 31L34 30L33 30L33 28L34 28L34 29L35 29L35 30L36 30L36 29L35 29L35 27L36 27L36 28L37 28L37 27L36 27L36 26L35 26L35 24L36 24L36 25L37 25L37 23L34 23L34 22L33 22L33 21L32 21L32 20L34 20L34 21L36 21L36 20L37 20L37 19L35 19L35 18L34 18L34 17L36 17L36 16L37 16L37 15L36 15L36 16L35 16L35 15L34 15L34 14L33 14L33 13L36 13L36 12L35 12L35 11L34 11L34 10L33 10L33 9L37 9L37 8L33 8L33 9L32 9L32 8L31 8L31 9L30 9L30 11L31 11L31 9L32 9L32 10L33 10L33 11L34 11L34 12L33 12L33 13L32 13L32 12L28 12L28 13L27 13L27 12L26 12L26 13L27 13L27 16L26 16L26 17L25 17L25 19L24 19L24 17L23 17L23 16L22 16L22 15L21 15L21 14L22 14L22 13L23 13L23 15L26 15L26 14L24 14L24 13L23 13L23 12L25 12L25 11L26 11L26 10L27 10L27 11L29 11L29 9L27 9L27 8L28 8L28 7L29 7L29 3L28 3L28 4L27 4L27 3L25 3L25 2L26 2L26 0L25 0L25 1L24 1L24 0L22 0L22 2L21 2L21 3L22 3L22 2L23 2L23 5L24 5L24 4L26 4L26 5L28 5L28 7L27 7L27 6L26 6L26 9L25 9L25 8L24 8L24 7L25 7L25 6L24 6L24 7L23 7L23 6L22 6L22 5L19 5L19 4L18 4L18 7L17 7L17 5L16 5L16 7L15 7L15 6L14 6L14 7L13 7L13 6L12 6L12 7L11 7L11 3L10 3L10 2L9 2L9 0ZM13 0L13 1L11 1L11 2L12 2L12 5L13 5L13 2L14 2L14 3L15 3L15 2L16 2L16 1L17 1L17 0L16 0L16 1L15 1L15 0ZM18 0L18 1L19 1L19 2L20 2L20 1L19 1L19 0ZM27 0L27 1L29 1L29 0ZM23 1L23 2L24 2L24 1ZM17 2L17 3L18 3L18 2ZM19 6L19 7L18 7L18 8L15 8L15 7L14 7L14 9L15 9L15 10L13 10L13 9L12 9L12 8L13 8L13 7L12 7L12 8L11 8L11 9L10 9L10 10L9 10L9 11L8 11L8 10L7 10L7 9L4 9L4 10L5 10L5 11L6 11L6 12L7 12L7 13L6 13L6 14L5 14L5 15L4 15L4 16L5 16L5 17L6 17L6 18L4 18L4 19L6 19L6 20L7 20L7 19L6 19L6 18L8 18L8 19L9 19L9 20L10 20L10 21L6 21L6 22L8 22L8 25L9 25L9 23L11 23L11 22L12 22L12 21L13 21L13 22L16 22L16 24L17 24L17 27L18 27L18 29L19 29L19 32L18 32L18 33L17 33L17 31L18 31L18 30L17 30L17 28L16 28L16 27L15 27L15 26L13 26L13 25L12 25L12 24L13 24L13 23L12 23L12 24L11 24L11 25L10 25L10 27L9 27L9 26L7 26L7 27L6 27L6 28L7 28L7 27L8 27L8 29L9 29L9 28L10 28L10 27L11 27L11 28L12 28L12 29L11 29L11 30L12 30L12 29L13 29L13 30L15 30L15 29L16 29L16 31L14 31L14 33L15 33L15 32L16 32L16 33L17 33L17 34L16 34L16 35L21 35L21 34L22 34L22 32L21 32L21 31L22 31L22 30L23 30L23 29L24 29L24 28L25 28L25 30L24 30L24 31L25 31L25 34L26 34L26 33L28 33L28 32L27 32L27 31L28 31L28 27L27 27L27 26L26 26L26 27L25 27L25 25L27 25L27 24L26 24L26 22L25 22L25 21L24 21L24 22L25 22L25 23L24 23L24 24L25 24L25 25L24 25L24 27L23 27L23 28L22 28L22 29L21 29L21 28L20 28L20 29L19 29L19 27L22 27L22 26L21 26L21 25L19 25L19 24L20 24L20 22L21 22L21 23L22 23L22 22L23 22L23 20L24 20L24 19L23 19L23 17L22 17L22 18L21 18L21 15L20 15L20 14L21 14L21 13L20 13L20 12L21 12L21 11L20 11L20 10L21 10L21 9L19 9L19 8L20 8L20 6ZM21 6L21 7L22 7L22 8L23 8L23 7L22 7L22 6ZM16 9L16 11L17 11L17 12L15 12L15 11L14 11L14 12L13 12L13 11L12 11L12 12L11 12L11 13L12 13L12 14L10 14L10 11L9 11L9 12L8 12L8 13L9 13L9 15L8 15L8 14L6 14L6 15L8 15L8 16L6 16L6 17L8 17L8 18L9 18L9 19L11 19L11 18L10 18L10 17L9 17L9 15L11 15L11 16L12 16L12 17L13 17L13 18L15 18L15 17L14 17L14 15L15 15L15 16L17 16L17 17L16 17L16 19L17 19L17 21L18 21L18 22L17 22L17 24L18 24L18 22L19 22L19 21L20 21L20 19L19 19L19 17L20 17L20 15L19 15L19 13L18 13L18 11L19 11L19 9L18 9L18 10L17 10L17 9ZM22 9L22 10L23 10L23 9ZM24 9L24 11L25 11L25 9ZM6 10L6 11L7 11L7 10ZM22 11L22 12L23 12L23 11ZM12 12L12 13L13 13L13 14L16 14L16 15L18 15L18 14L17 14L17 13L13 13L13 12ZM29 13L29 14L28 14L28 16L27 16L27 17L29 17L29 19L30 19L30 20L31 20L31 19L32 19L32 17L34 17L34 15L31 15L31 13ZM12 15L12 16L13 16L13 15ZM1 16L1 19L2 19L2 20L3 20L3 21L4 21L4 22L5 22L5 21L4 21L4 20L3 20L3 18L2 18L2 17L3 17L3 16ZM18 16L18 17L19 17L19 16ZM29 16L29 17L31 17L31 16ZM17 18L17 19L18 19L18 20L19 20L19 19L18 19L18 18ZM26 18L26 19L25 19L25 20L26 20L26 21L28 21L28 22L29 22L29 20L28 20L28 19L27 19L27 18ZM33 18L33 19L34 19L34 18ZM12 19L12 20L11 20L11 21L10 21L10 22L11 22L11 21L12 21L12 20L13 20L13 21L16 21L16 20L15 20L15 19L14 19L14 20L13 20L13 19ZM21 19L21 21L22 21L22 20L23 20L23 19ZM30 21L30 23L31 23L31 22L32 22L32 25L29 25L29 23L28 23L28 26L30 26L30 27L29 27L29 28L33 28L33 27L32 27L32 25L33 25L33 26L34 26L34 27L35 27L35 26L34 26L34 25L33 25L33 22L32 22L32 21ZM0 22L0 24L1 24L1 22ZM6 23L6 24L7 24L7 23ZM14 23L14 25L15 25L15 23ZM22 24L22 25L23 25L23 24ZM0 25L0 26L1 26L1 25ZM18 25L18 26L19 26L19 25ZM2 27L2 28L0 28L0 29L3 29L3 27ZM12 27L12 28L13 28L13 29L15 29L15 27L14 27L14 28L13 28L13 27ZM26 27L26 28L27 28L27 27ZM26 29L26 30L27 30L27 29ZM29 29L29 32L32 32L32 29ZM20 30L20 31L21 31L21 30ZM30 30L30 31L31 31L31 30ZM12 31L12 32L11 32L11 33L10 33L10 35L11 35L11 36L12 36L12 35L13 35L13 36L14 36L14 35L15 35L15 34L13 34L13 33L12 33L12 32L13 32L13 31ZM20 32L20 33L21 33L21 32ZM36 32L36 33L34 33L34 34L37 34L37 32ZM34 35L34 37L37 37L37 36L36 36L36 35ZM24 36L24 37L25 37L25 36ZM0 0L0 7L7 7L7 0ZM1 1L1 6L6 6L6 1ZM2 2L2 5L5 5L5 2ZM30 0L30 7L37 7L37 0ZM31 1L31 6L36 6L36 1ZM32 2L32 5L35 5L35 2ZM0 30L0 37L7 37L7 30ZM1 31L1 36L6 36L6 31ZM2 32L2 35L5 35L5 32Z" fill="#000000"/></g></g></svg>
