<?xml version="1.0" encoding="UTF-8"?>
<svg xmlns="http://www.w3.org/2000/svg" version="1.1" width="150" height="150" viewBox="0 0 150 150"><rect x="0" y="0" width="150" height="150" fill="#ffffff"/><g transform="scale(4.054)"><g transform="translate(0,0)"><path fill-rule="evenodd" d="M8 0L8 4L9 4L9 5L8 5L8 7L9 7L9 6L10 6L10 9L8 9L8 10L10 10L10 9L11 9L11 8L12 8L12 9L13 9L13 10L15 10L15 9L14 9L14 7L15 7L15 8L17 8L17 9L16 9L16 11L17 11L17 12L15 12L15 11L14 11L14 12L13 12L13 11L12 11L12 12L11 12L11 13L9 13L9 12L10 12L10 11L8 11L8 15L7 15L7 14L5 14L5 13L7 13L7 12L6 12L6 11L7 11L7 10L6 10L6 9L7 9L7 8L4 8L4 10L3 10L3 9L2 9L2 8L0 8L0 9L2 9L2 10L0 10L0 12L1 12L1 13L0 13L0 15L1 15L1 16L0 16L0 19L1 19L1 20L2 20L2 21L0 21L0 22L2 22L2 23L1 23L1 24L3 24L3 26L4 26L4 27L3 27L3 29L5 29L5 28L6 28L6 29L7 29L7 28L6 28L6 27L8 27L8 26L6 26L6 25L7 25L7 24L6 24L6 23L9 23L9 22L4 22L4 21L3 21L3 20L5 20L5 21L9 21L9 20L11 20L11 21L10 21L10 24L8 24L8 25L11 25L11 24L12 24L12 25L13 25L13 26L15 26L15 25L14 25L14 23L15 23L15 24L18 24L18 23L16 23L16 22L13 22L13 21L18 21L18 22L19 22L19 21L20 21L20 20L21 20L21 21L22 21L22 23L21 23L21 22L20 22L20 23L19 23L19 25L20 25L20 23L21 23L21 26L22 26L22 27L19 27L19 26L17 26L17 25L16 25L16 27L17 27L17 28L20 28L20 29L22 29L22 27L23 27L23 28L24 28L24 29L23 29L23 30L22 30L22 31L21 31L21 30L20 30L20 31L21 31L21 32L20 32L20 33L21 33L21 36L20 36L20 35L19 35L19 36L18 36L18 35L17 35L17 32L18 32L18 31L19 31L19 29L18 29L18 30L17 30L17 32L16 32L16 30L13 30L13 29L16 29L16 28L15 28L15 27L14 27L14 28L13 28L13 27L12 27L12 28L11 28L11 26L9 26L9 28L8 28L8 30L9 30L9 31L8 31L8 33L9 33L9 34L10 34L10 36L9 36L9 35L8 35L8 37L12 37L12 36L13 36L13 37L15 37L15 35L16 35L16 36L17 36L17 37L22 37L22 36L23 36L23 37L25 37L25 35L24 35L24 33L25 33L25 32L24 32L24 31L25 31L25 30L28 30L28 33L26 33L26 35L27 35L27 37L28 37L28 35L29 35L29 36L30 36L30 35L31 35L31 37L32 37L32 33L33 33L33 35L34 35L34 37L37 37L37 36L36 36L36 35L35 35L35 33L36 33L36 34L37 34L37 33L36 33L36 32L37 32L37 31L36 31L36 32L35 32L35 31L34 31L34 30L33 30L33 28L34 28L34 29L35 29L35 30L36 30L36 29L35 29L35 27L36 27L36 28L37 28L37 27L36 27L36 26L35 26L35 24L36 24L36 25L37 25L37 23L34 23L34 22L33 22L33 21L32 21L32 20L31 20L31 19L32 19L32 18L34 18L34 19L33 19L33 20L34 20L34 21L36 21L36 20L37 20L37 19L35 19L35 18L34 18L34 17L36 17L36 16L37 16L37 15L36 15L36 16L35 16L35 15L34 15L34 14L33 14L33 13L36 13L36 12L35 12L35 11L34 11L34 10L33 10L33 9L37 9L37 8L33 8L33 9L32 9L32 8L31 8L31 9L32 9L32 10L33 10L33 11L31 11L31 12L29 12L29 13L28 13L28 12L27 12L27 11L28 11L28 9L25 9L25 10L27 10L27 11L26 11L26 13L25 13L25 11L24 11L24 9L23 9L23 10L21 10L21 11L20 11L20 12L18 12L18 11L19 11L19 9L20 9L20 8L21 8L21 9L22 9L22 7L23 7L23 8L25 8L25 6L26 6L26 7L27 7L27 6L26 6L26 5L28 5L28 4L27 4L27 3L26 3L26 5L25 5L25 6L24 6L24 7L23 7L23 6L22 6L22 7L21 7L21 6L20 6L20 5L19 5L19 3L20 3L20 1L19 1L19 0L16 0L16 1L15 1L15 0L13 0L13 1L11 1L11 2L12 2L12 5L13 5L13 2L14 2L14 3L15 3L15 2L16 2L16 1L18 1L18 2L17 2L17 3L18 3L18 4L17 4L17 5L16 5L16 7L15 7L15 6L14 6L14 7L13 7L13 6L12 6L12 7L11 7L11 3L10 3L10 2L9 2L9 0ZM22 0L22 1L21 1L21 3L23 3L23 5L24 5L24 3L25 3L25 2L23 2L23 1L24 1L24 0ZM25 0L25 1L26 1L26 2L27 2L27 1L28 1L28 0ZM28 2L28 3L29 3L29 2ZM18 5L18 6L17 6L17 7L18 7L18 6L19 6L19 8L18 8L18 9L19 9L19 8L20 8L20 6L19 6L19 5ZM28 6L28 8L29 8L29 6ZM12 7L12 8L13 8L13 7ZM2 10L2 11L3 11L3 10ZM17 10L17 11L18 11L18 10ZM29 10L29 11L30 11L30 10ZM4 11L4 12L3 12L3 14L1 14L1 15L3 15L3 16L1 16L1 18L5 18L5 19L6 19L6 20L8 20L8 19L10 19L10 18L11 18L11 20L12 20L12 21L11 21L11 22L12 22L12 21L13 21L13 20L14 20L14 19L15 19L15 20L17 20L17 19L18 19L18 20L20 20L20 19L22 19L22 20L23 20L23 21L24 21L24 23L25 23L25 25L24 25L24 24L23 24L23 25L22 25L22 26L23 26L23 25L24 25L24 28L25 28L25 29L28 29L28 28L29 28L29 27L30 27L30 28L31 28L31 27L30 27L30 26L32 26L32 25L33 25L33 26L34 26L34 27L35 27L35 26L34 26L34 25L33 25L33 24L32 24L32 23L33 23L33 22L32 22L32 21L30 21L30 18L31 18L31 17L29 17L29 19L27 19L27 18L26 18L26 19L25 19L25 21L24 21L24 20L23 20L23 17L24 17L24 16L26 16L26 17L28 17L28 16L29 16L29 15L28 15L28 16L27 16L27 14L25 14L25 13L23 13L23 14L24 14L24 16L23 16L23 15L22 15L22 16L23 16L23 17L22 17L22 18L21 18L21 17L20 17L20 16L21 16L21 15L20 15L20 14L21 14L21 12L20 12L20 13L19 13L19 14L18 14L18 13L13 13L13 12L12 12L12 13L11 13L11 14L9 14L9 15L11 15L11 14L12 14L12 13L13 13L13 14L16 14L16 15L18 15L18 16L19 16L19 17L18 17L18 18L17 18L17 19L16 19L16 17L17 17L17 16L15 16L15 15L14 15L14 17L15 17L15 18L13 18L13 17L12 17L12 16L13 16L13 15L12 15L12 16L9 16L9 17L10 17L10 18L8 18L8 16L7 16L7 15L5 15L5 14L4 14L4 13L5 13L5 11ZM23 11L23 12L24 12L24 11ZM33 11L33 12L34 12L34 11ZM30 13L30 14L31 14L31 16L32 16L32 17L34 17L34 15L33 15L33 14L32 14L32 13ZM3 14L3 15L4 15L4 16L3 16L3 17L5 17L5 18L6 18L6 19L7 19L7 18L6 18L6 17L7 17L7 16L5 16L5 15L4 15L4 14ZM2 19L2 20L3 20L3 19ZM12 19L12 20L13 20L13 19ZM27 20L27 21L25 21L25 22L27 22L27 23L26 23L26 24L28 24L28 22L29 22L29 24L30 24L30 25L32 25L32 24L31 24L31 23L32 23L32 22L31 22L31 23L30 23L30 22L29 22L29 21L28 21L28 20ZM3 22L3 24L4 24L4 25L6 25L6 24L5 24L5 23L4 23L4 22ZM12 23L12 24L13 24L13 23ZM0 25L0 26L1 26L1 25ZM25 25L25 26L26 26L26 27L29 27L29 25L27 25L27 26L26 26L26 25ZM32 27L32 28L33 28L33 27ZM0 28L0 29L2 29L2 28ZM9 28L9 29L10 29L10 30L12 30L12 29L13 29L13 28L12 28L12 29L10 29L10 28ZM29 29L29 32L32 32L32 29ZM30 30L30 31L31 31L31 30ZM9 31L9 32L11 32L11 36L12 36L12 35L13 35L13 36L14 36L14 35L15 35L15 34L13 34L13 33L12 33L12 32L13 32L13 31L12 31L12 32L11 32L11 31ZM14 31L14 33L15 33L15 31ZM26 31L26 32L27 32L27 31ZM33 31L33 33L35 33L35 32L34 32L34 31ZM22 32L22 35L23 35L23 33L24 33L24 32ZM18 33L18 34L19 34L19 33ZM28 33L28 34L27 34L27 35L28 35L28 34L30 34L30 33ZM0 0L0 7L7 7L7 0ZM1 1L1 6L6 6L6 1ZM2 2L2 5L5 5L5 2ZM30 0L30 7L37 7L37 0ZM31 1L31 6L36 6L36 1ZM32 2L32 5L35 5L35 2ZM0 30L0 37L7 37L7 30ZM1 31L1 36L6 36L6 31ZM2 32L2 35L5 35L5 32Z" fill="#000000"/></g></g></svg>
