<?xml version="1.0" encoding="UTF-8"?>
<svg xmlns="http://www.w3.org/2000/svg" version="1.1" width="150" height="150" viewBox="0 0 150 150"><rect x="0" y="0" width="150" height="150" fill="#ffffff"/><g transform="scale(4.054)"><g transform="translate(0,0)"><path fill-rule="evenodd" d="M9 0L9 1L8 1L8 3L9 3L9 4L8 4L8 8L6 8L6 9L7 9L7 10L6 10L6 11L10 11L10 10L12 10L12 9L11 9L11 8L10 8L10 7L11 7L11 6L12 6L12 8L13 8L13 10L14 10L14 11L13 11L13 12L12 12L12 13L11 13L11 12L9 12L9 14L8 14L8 15L9 15L9 17L12 17L12 16L13 16L13 17L14 17L14 18L13 18L13 20L12 20L12 19L11 19L11 18L9 18L9 19L10 19L10 20L8 20L8 17L7 17L7 16L5 16L5 15L3 15L3 13L4 13L4 14L6 14L6 15L7 15L7 14L6 14L6 13L8 13L8 12L5 12L5 9L4 9L4 8L3 8L3 9L2 9L2 8L0 8L0 10L2 10L2 12L3 12L3 13L1 13L1 12L0 12L0 13L1 13L1 14L0 14L0 17L3 17L3 18L4 18L4 19L2 19L2 18L0 18L0 21L2 21L2 22L0 22L0 23L3 23L3 24L0 24L0 25L1 25L1 26L0 26L0 27L1 27L1 28L0 28L0 29L3 29L3 28L2 28L2 27L4 27L4 29L5 29L5 28L6 28L6 29L7 29L7 28L6 28L6 27L9 27L9 29L8 29L8 31L12 31L12 32L13 32L13 30L14 30L14 32L15 32L15 29L16 29L16 30L18 30L18 31L16 31L16 35L14 35L14 36L17 36L17 37L18 37L18 36L17 36L17 34L19 34L19 37L22 37L22 36L23 36L23 34L21 34L21 33L22 33L22 32L23 32L23 33L25 33L25 35L24 35L24 37L26 37L26 36L27 36L27 37L29 37L29 35L28 35L28 34L27 34L27 35L26 35L26 33L27 33L27 32L24 32L24 31L25 31L25 30L26 30L26 31L28 31L28 33L29 33L29 34L30 34L30 33L31 33L31 34L32 34L32 36L33 36L33 30L34 30L34 29L35 29L35 31L34 31L34 34L35 34L35 35L37 35L37 34L35 34L35 33L36 33L36 32L37 32L37 29L35 29L35 28L34 28L34 27L33 27L33 26L34 26L34 23L36 23L36 25L35 25L35 27L36 27L36 28L37 28L37 21L35 21L35 22L34 22L34 21L33 21L33 20L37 20L37 17L36 17L36 16L37 16L37 13L36 13L36 11L37 11L37 9L36 9L36 8L34 8L34 9L33 9L33 8L30 8L30 9L29 9L29 6L28 6L28 4L29 4L29 0L26 0L26 1L25 1L25 0L22 0L22 1L21 1L21 0L18 0L18 1L20 1L20 2L17 2L17 3L13 3L13 0L12 0L12 1L11 1L11 2L9 2L9 1L10 1L10 0ZM14 0L14 2L16 2L16 1L15 1L15 0ZM26 1L26 2L25 2L25 3L24 3L24 5L22 5L22 2L20 2L20 3L21 3L21 4L19 4L19 3L17 3L17 4L19 4L19 5L20 5L20 6L19 6L19 7L18 7L18 5L16 5L16 4L15 4L15 5L16 5L16 6L15 6L15 7L14 7L14 5L13 5L13 3L12 3L12 4L9 4L9 5L10 5L10 6L9 6L9 7L10 7L10 6L11 6L11 5L12 5L12 6L13 6L13 8L14 8L14 10L15 10L15 12L14 12L14 13L15 13L15 18L14 18L14 20L13 20L13 21L14 21L14 22L15 22L15 23L14 23L14 24L12 24L12 28L11 28L11 29L9 29L9 30L12 30L12 28L14 28L14 29L15 29L15 27L16 27L16 29L17 29L17 25L15 25L15 27L13 27L13 25L14 25L14 24L16 24L16 21L14 21L14 20L17 20L17 21L19 21L19 22L20 22L20 23L19 23L19 24L18 24L18 23L17 23L17 24L18 24L18 25L20 25L20 23L22 23L22 24L21 24L21 25L23 25L23 26L24 26L24 25L23 25L23 24L25 24L25 22L24 22L24 18L23 18L23 17L25 17L25 20L30 20L30 19L31 19L31 23L32 23L32 24L31 24L31 25L32 25L32 26L33 26L33 23L34 23L34 22L33 22L33 21L32 21L32 20L33 20L33 19L31 19L31 18L30 18L30 17L29 17L29 18L30 18L30 19L28 19L28 16L27 16L27 15L28 15L28 14L30 14L30 15L32 15L32 17L33 17L33 18L36 18L36 17L34 17L34 16L36 16L36 14L33 14L33 13L32 13L32 12L34 12L34 13L35 13L35 11L34 11L34 10L35 10L35 9L34 9L34 10L33 10L33 9L31 9L31 10L33 10L33 11L30 11L30 10L29 10L29 9L28 9L28 6L27 6L27 4L28 4L28 3L27 3L27 1ZM25 3L25 6L24 6L24 7L25 7L25 6L26 6L26 7L27 7L27 6L26 6L26 4L27 4L27 3ZM21 5L21 6L20 6L20 8L21 8L21 9L20 9L20 10L18 10L18 9L19 9L19 8L18 8L18 7L17 7L17 6L16 6L16 9L17 9L17 11L19 11L19 12L20 12L20 11L21 11L21 13L19 13L19 14L17 14L17 13L18 13L18 12L17 12L17 13L16 13L16 12L15 12L15 13L16 13L16 15L17 15L17 18L16 18L16 19L17 19L17 20L18 20L18 16L19 16L19 14L21 14L21 15L20 15L20 17L21 17L21 18L22 18L22 19L20 19L20 20L21 20L21 21L20 21L20 22L22 22L22 21L23 21L23 20L22 20L22 19L23 19L23 18L22 18L22 17L23 17L23 16L26 16L26 15L27 15L27 14L26 14L26 11L27 11L27 10L26 10L26 9L27 9L27 8L25 8L25 9L24 9L24 8L23 8L23 6L22 6L22 5ZM21 6L21 7L22 7L22 6ZM8 8L8 10L9 10L9 9L10 9L10 8ZM17 8L17 9L18 9L18 8ZM22 8L22 10L21 10L21 11L23 11L23 12L22 12L22 14L24 14L24 13L25 13L25 12L24 12L24 11L25 11L25 10L24 10L24 9L23 9L23 8ZM3 9L3 10L4 10L4 9ZM28 10L28 12L27 12L27 13L30 13L30 14L32 14L32 13L31 13L31 12L30 12L30 11L29 11L29 10ZM3 11L3 12L4 12L4 13L5 13L5 12L4 12L4 11ZM10 13L10 14L11 14L11 16L12 16L12 14L11 14L11 13ZM1 14L1 15L2 15L2 16L3 16L3 15L2 15L2 14ZM13 14L13 15L14 15L14 14ZM25 14L25 15L26 15L26 14ZM22 15L22 16L23 16L23 15ZM5 17L5 18L7 18L7 17ZM26 17L26 18L27 18L27 17ZM5 19L5 20L3 20L3 22L4 22L4 25L3 25L3 26L9 26L9 25L11 25L11 24L9 24L9 25L8 25L8 24L7 24L7 23L8 23L8 21L6 21L6 20L7 20L7 19ZM9 21L9 23L11 23L11 21ZM26 21L26 25L25 25L25 26L26 26L26 28L25 28L25 27L24 27L24 28L23 28L23 29L22 29L22 30L21 30L21 27L22 27L22 26L21 26L21 27L20 27L20 26L18 26L18 30L19 30L19 32L17 32L17 33L19 33L19 34L20 34L20 33L21 33L21 32L20 32L20 31L24 31L24 29L26 29L26 28L27 28L27 30L28 30L28 26L29 26L29 27L30 27L30 28L33 28L33 29L34 29L34 28L33 28L33 27L31 27L31 26L29 26L29 25L30 25L30 22L29 22L29 25L28 25L28 24L27 24L27 23L28 23L28 21ZM6 22L6 23L7 23L7 22ZM32 22L32 23L33 23L33 22ZM5 24L5 25L7 25L7 24ZM26 25L26 26L27 26L27 25ZM1 26L1 27L2 27L2 26ZM10 26L10 27L11 27L11 26ZM19 28L19 29L20 29L20 28ZM29 29L29 32L32 32L32 29ZM30 30L30 31L31 31L31 30ZM10 32L10 35L8 35L8 37L11 37L11 34L12 34L12 33L11 33L11 32ZM8 33L8 34L9 34L9 33ZM14 33L14 34L15 34L15 33ZM20 35L20 36L21 36L21 35ZM12 36L12 37L13 37L13 36ZM35 36L35 37L37 37L37 36ZM0 0L0 7L7 7L7 0ZM1 1L1 6L6 6L6 1ZM2 2L2 5L5 5L5 2ZM30 0L30 7L37 7L37 0ZM31 1L31 6L36 6L36 1ZM32 2L32 5L35 5L35 2ZM0 30L0 37L7 37L7 30ZM1 31L1 36L6 36L6 31ZM2 32L2 35L5 35L5 32Z" fill="#000000"/></g></g></svg>
