<?xml version="1.0" encoding="UTF-8"?>
<svg xmlns="http://www.w3.org/2000/svg" version="1.1" width="150" height="150" viewBox="0 0 150 150"><rect x="0" y="0" width="150" height="150" fill="#ffffff"/><g transform="scale(4.054)"><g transform="translate(0,0)"><path fill-rule="evenodd" d="M10 0L10 2L11 2L11 0ZM12 0L12 1L13 1L13 2L12 2L12 4L13 4L13 5L11 5L11 6L10 6L10 4L11 4L11 3L8 3L8 4L9 4L9 5L8 5L8 7L9 7L9 8L6 8L6 9L7 9L7 10L5 10L5 14L4 14L4 15L3 15L3 14L1 14L1 15L2 15L2 16L1 16L1 17L2 17L2 18L1 18L1 19L0 19L0 22L1 22L1 23L0 23L0 29L1 29L1 25L2 25L2 24L4 24L4 23L5 23L5 22L3 22L3 21L7 21L7 22L6 22L6 23L7 23L7 22L8 22L8 23L10 23L10 24L11 24L11 25L10 25L10 26L9 26L9 25L7 25L7 24L6 24L6 25L5 25L5 26L4 26L4 27L2 27L2 29L3 29L3 28L5 28L5 29L8 29L8 31L9 31L9 30L11 30L11 31L10 31L10 32L8 32L8 37L9 37L9 36L10 36L10 35L9 35L9 33L12 33L12 34L13 34L13 35L14 35L14 34L13 34L13 33L14 33L14 32L12 32L12 31L14 31L14 30L11 30L11 29L10 29L10 28L9 28L9 27L11 27L11 25L12 25L12 26L13 26L13 25L12 25L12 23L13 23L13 22L11 22L11 21L10 21L10 20L9 20L9 21L8 21L8 19L9 19L9 18L10 18L10 19L11 19L11 18L10 18L10 17L12 17L12 18L13 18L13 19L12 19L12 21L13 21L13 19L14 19L14 18L13 18L13 17L14 17L14 16L13 16L13 17L12 17L12 15L14 15L14 14L15 14L15 17L16 17L16 18L15 18L15 20L14 20L14 25L16 25L16 26L14 26L14 27L18 27L18 28L14 28L14 29L16 29L16 30L15 30L15 31L16 31L16 32L17 32L17 33L16 33L16 34L15 34L15 36L13 36L13 37L15 37L15 36L16 36L16 35L18 35L18 36L17 36L17 37L18 37L18 36L19 36L19 34L21 34L21 35L20 35L20 36L21 36L21 37L23 37L23 36L24 36L24 37L27 37L27 36L29 36L29 35L26 35L26 36L25 36L25 35L23 35L23 36L22 36L22 33L20 33L20 32L19 32L19 31L18 31L18 32L17 32L17 31L16 31L16 30L20 30L20 31L21 31L21 32L23 32L23 34L24 34L24 33L30 33L30 34L31 34L31 35L30 35L30 36L32 36L32 37L37 37L37 34L35 34L35 33L34 33L34 32L33 32L33 31L36 31L36 33L37 33L37 30L36 30L36 29L35 29L35 28L36 28L36 27L37 27L37 26L36 26L36 27L35 27L35 24L34 24L34 23L37 23L37 22L34 22L34 21L36 21L36 20L34 20L34 19L33 19L33 20L32 20L32 21L31 21L31 20L30 20L30 18L29 18L29 17L31 17L31 16L29 16L29 15L28 15L28 14L30 14L30 13L31 13L31 14L32 14L32 13L33 13L33 15L35 15L35 16L32 16L32 17L36 17L36 15L37 15L37 14L34 14L34 13L36 13L36 12L37 12L37 10L34 10L34 8L33 8L33 11L31 11L31 10L32 10L32 8L31 8L31 10L30 10L30 11L29 11L29 10L27 10L27 9L28 9L28 8L25 8L25 6L24 6L24 7L23 7L23 6L22 6L22 4L19 4L19 5L18 5L18 8L17 8L17 9L16 9L16 8L15 8L15 9L16 9L16 10L15 10L15 13L14 13L14 12L13 12L13 11L14 11L14 10L13 10L13 9L14 9L14 8L13 8L13 9L12 9L12 7L13 7L13 6L14 6L14 7L15 7L15 6L16 6L16 7L17 7L17 4L18 4L18 3L17 3L17 4L16 4L16 5L14 5L14 4L15 4L15 3L16 3L16 2L19 2L19 3L22 3L22 0L21 0L21 2L19 2L19 1L20 1L20 0L19 0L19 1L17 1L17 0L16 0L16 1L14 1L14 0ZM23 0L23 1L24 1L24 2L23 2L23 5L24 5L24 4L25 4L25 3L24 3L24 2L26 2L26 1L25 1L25 0ZM8 1L8 2L9 2L9 1ZM27 1L27 2L28 2L28 1ZM13 2L13 3L14 3L14 2ZM26 3L26 5L27 5L27 6L26 6L26 7L27 7L27 6L28 6L28 7L29 7L29 6L28 6L28 5L27 5L27 3ZM28 3L28 4L29 4L29 3ZM19 5L19 8L18 8L18 9L20 9L20 10L19 10L19 11L18 11L18 10L17 10L17 12L18 12L18 13L17 13L17 14L16 14L16 13L15 13L15 14L16 14L16 15L17 15L17 16L18 16L18 17L20 17L20 14L21 14L21 13L22 13L22 12L21 12L21 10L23 10L23 11L24 11L24 12L23 12L23 13L24 13L24 14L23 14L23 17L22 17L22 16L21 16L21 18L18 18L18 19L16 19L16 20L15 20L15 22L16 22L16 23L17 23L17 24L19 24L19 25L20 25L20 23L21 23L21 22L20 22L20 21L19 21L19 20L20 20L20 19L22 19L22 20L21 20L21 21L22 21L22 22L23 22L23 23L22 23L22 24L21 24L21 27L20 27L20 26L19 26L19 27L20 27L20 28L19 28L19 29L20 29L20 28L21 28L21 29L22 29L22 28L21 28L21 27L22 27L22 26L23 26L23 28L24 28L24 29L23 29L23 30L21 30L21 31L23 31L23 32L24 32L24 31L25 31L25 32L28 32L28 29L27 29L27 31L26 31L26 29L25 29L25 28L28 28L28 27L29 27L29 28L30 28L30 27L31 27L31 25L32 25L32 26L33 26L33 25L34 25L34 24L33 24L33 25L32 25L32 23L33 23L33 21L32 21L32 23L30 23L30 22L31 22L31 21L30 21L30 20L28 20L28 19L29 19L29 18L28 18L28 17L27 17L27 18L26 18L26 17L25 17L25 16L26 16L26 14L28 14L28 13L29 13L29 12L28 12L28 11L27 11L27 10L26 10L26 9L25 9L25 8L23 8L23 7L22 7L22 6L21 6L21 5ZM9 6L9 7L10 7L10 6ZM11 6L11 7L12 7L12 6ZM20 6L20 7L21 7L21 8L20 8L20 9L23 9L23 10L24 10L24 11L26 11L26 10L25 10L25 9L23 9L23 8L22 8L22 7L21 7L21 6ZM0 8L0 9L5 9L5 8ZM10 8L10 9L8 9L8 10L7 10L7 11L6 11L6 12L7 12L7 13L6 13L6 14L7 14L7 15L5 15L5 17L6 17L6 18L3 18L3 19L4 19L4 20L7 20L7 19L8 19L8 18L9 18L9 17L10 17L10 16L11 16L11 15L10 15L10 13L11 13L11 14L13 14L13 13L12 13L12 11L13 11L13 10L12 10L12 9L11 9L11 8ZM29 8L29 9L30 9L30 8ZM35 8L35 9L36 9L36 8ZM10 9L10 10L8 10L8 11L10 11L10 12L11 12L11 9ZM1 10L1 12L0 12L0 13L3 13L3 12L2 12L2 10ZM33 11L33 13L34 13L34 12L35 12L35 11ZM20 12L20 13L18 13L18 14L17 14L17 15L19 15L19 14L20 14L20 13L21 13L21 12ZM24 12L24 13L27 13L27 12ZM31 12L31 13L32 13L32 12ZM8 13L8 15L7 15L7 16L6 16L6 17L9 17L9 16L8 16L8 15L9 15L9 13ZM24 14L24 16L25 16L25 14ZM2 16L2 17L4 17L4 16ZM23 17L23 18L22 18L22 19L23 19L23 18L24 18L24 20L25 20L25 21L23 21L23 20L22 20L22 21L23 21L23 22L25 22L25 21L27 21L27 19L28 19L28 18L27 18L27 19L26 19L26 18L25 18L25 17ZM6 18L6 19L7 19L7 18ZM31 18L31 19L32 19L32 18ZM35 18L35 19L37 19L37 18ZM1 19L1 22L2 22L2 19ZM25 19L25 20L26 20L26 19ZM17 20L17 21L16 21L16 22L17 22L17 23L19 23L19 22L17 22L17 21L18 21L18 20ZM28 21L28 22L26 22L26 24L25 24L25 26L24 26L24 25L23 25L23 24L22 24L22 25L23 25L23 26L24 26L24 27L28 27L28 26L29 26L29 27L30 27L30 26L29 26L29 25L28 25L28 24L29 24L29 21ZM10 22L10 23L11 23L11 22ZM30 24L30 25L31 25L31 24ZM36 24L36 25L37 25L37 24ZM6 25L6 26L5 26L5 27L6 27L6 28L8 28L8 27L9 27L9 26L7 26L7 25ZM17 25L17 26L18 26L18 25ZM26 25L26 26L28 26L28 25ZM6 26L6 27L7 27L7 26ZM12 27L12 29L13 29L13 27ZM32 27L32 28L33 28L33 27ZM34 27L34 28L35 28L35 27ZM29 29L29 32L32 32L32 29ZM34 29L34 30L35 30L35 29ZM30 30L30 31L31 31L31 30ZM17 33L17 34L18 34L18 33ZM31 33L31 34L32 34L32 36L36 36L36 35L35 35L35 34L34 34L34 33L33 33L33 34L32 34L32 33ZM33 34L33 35L34 35L34 34ZM11 36L11 37L12 37L12 36ZM0 0L0 7L7 7L7 0ZM1 1L1 6L6 6L6 1ZM2 2L2 5L5 5L5 2ZM30 0L30 7L37 7L37 0ZM31 1L31 6L36 6L36 1ZM32 2L32 5L35 5L35 2ZM0 30L0 37L7 37L7 30ZM1 31L1 36L6 36L6 31ZM2 32L2 35L5 35L5 32Z" fill="#000000"/></g></g></svg>
