<?xml version="1.0" encoding="UTF-8"?>
<svg xmlns="http://www.w3.org/2000/svg" version="1.1" width="150" height="150" viewBox="0 0 150 150"><rect x="0" y="0" width="150" height="150" fill="#ffffff"/><g transform="scale(4.545)"><g transform="translate(0,0)"><path fill-rule="evenodd" d="M10 0L10 2L11 2L11 0ZM12 0L12 1L13 1L13 2L12 2L12 4L13 4L13 5L11 5L11 6L10 6L10 4L11 4L11 3L8 3L8 4L9 4L9 5L8 5L8 7L9 7L9 8L6 8L6 9L5 9L5 8L0 8L0 11L1 11L1 10L2 10L2 11L3 11L3 10L6 10L6 11L5 11L5 12L4 12L4 13L5 13L5 16L2 16L2 15L3 15L3 14L2 14L2 13L1 13L1 14L0 14L0 17L1 17L1 16L2 16L2 17L3 17L3 19L2 19L2 18L1 18L1 19L2 19L2 20L1 20L1 21L0 21L0 25L1 25L1 22L2 22L2 23L3 23L3 22L4 22L4 21L5 21L5 23L7 23L7 22L8 22L8 23L9 23L9 24L3 24L3 25L8 25L8 27L9 27L9 28L8 28L8 33L9 33L9 32L10 32L10 33L11 33L11 32L12 32L12 33L14 33L14 32L13 32L13 31L14 31L14 30L12 30L12 28L10 28L10 23L9 23L9 22L10 22L10 21L11 21L11 18L10 18L10 17L12 17L12 18L13 18L13 19L12 19L12 21L13 21L13 19L14 19L14 18L13 18L13 17L14 17L14 16L13 16L13 17L12 17L12 15L14 15L14 14L15 14L15 17L16 17L16 18L15 18L15 20L14 20L14 25L16 25L16 26L14 26L14 27L18 27L18 28L14 28L14 29L16 29L16 30L15 30L15 31L16 31L16 32L17 32L17 33L18 33L18 32L17 32L17 31L16 31L16 30L18 30L18 31L19 31L19 30L21 30L21 31L20 31L20 32L19 32L19 33L20 33L20 32L22 32L22 33L25 33L25 32L23 32L23 31L24 31L24 29L25 29L25 31L26 31L26 33L28 33L28 32L29 32L29 31L27 31L27 30L28 30L28 29L30 29L30 28L31 28L31 29L32 29L32 26L33 26L33 23L31 23L31 21L29 21L29 20L31 20L31 19L32 19L32 20L33 20L33 19L32 19L32 18L33 18L33 15L32 15L32 14L33 14L33 11L32 11L32 10L33 10L33 9L32 9L32 8L31 8L31 9L32 9L32 10L30 10L30 8L29 8L29 11L27 11L27 13L26 13L26 14L27 14L27 13L29 13L29 12L31 12L31 13L30 13L30 14L31 14L31 15L29 15L29 14L28 14L28 15L29 15L29 16L27 16L27 17L30 17L30 18L31 18L31 19L27 19L27 18L25 18L25 17L26 17L26 16L25 16L25 14L24 14L24 13L25 13L25 12L26 12L26 11L25 11L25 12L24 12L24 13L23 13L23 14L24 14L24 15L23 15L23 16L24 16L24 17L22 17L22 18L24 18L24 19L27 19L27 21L26 21L26 20L23 20L23 22L24 22L24 23L23 23L23 24L22 24L22 23L21 23L21 22L22 22L22 21L21 21L21 20L22 20L22 19L20 19L20 21L19 21L19 18L20 18L20 17L19 17L19 16L17 16L17 15L18 15L18 14L19 14L19 13L18 13L18 12L17 12L17 11L19 11L19 12L20 12L20 11L21 11L21 12L23 12L23 10L24 10L24 9L23 9L23 8L24 8L24 7L25 7L25 5L24 5L24 4L25 4L25 3L24 3L24 4L23 4L23 3L22 3L22 2L23 2L23 1L24 1L24 0L23 0L23 1L22 1L22 2L21 2L21 0L19 0L19 1L17 1L17 0L16 0L16 1L14 1L14 0ZM8 1L8 2L9 2L9 1ZM19 1L19 2L16 2L16 3L15 3L15 4L14 4L14 5L16 5L16 4L17 4L17 3L18 3L18 4L22 4L22 3L21 3L21 2L20 2L20 1ZM13 2L13 3L14 3L14 2ZM17 5L17 7L16 7L16 6L15 6L15 7L14 7L14 6L13 6L13 7L12 7L12 6L11 6L11 7L12 7L12 9L11 9L11 8L10 8L10 9L8 9L8 10L7 10L7 9L6 9L6 10L7 10L7 11L6 11L6 12L7 12L7 13L6 13L6 14L7 14L7 13L9 13L9 12L11 12L11 13L10 13L10 14L13 14L13 13L12 13L12 11L13 11L13 12L14 12L14 13L15 13L15 14L16 14L16 15L17 15L17 14L16 14L16 13L15 13L15 10L16 10L16 9L17 9L17 10L18 10L18 9L19 9L19 8L20 8L20 9L21 9L21 11L22 11L22 10L23 10L23 9L22 9L22 8L23 8L23 7L24 7L24 5L23 5L23 7L22 7L22 6L21 6L21 5L19 5L19 7L18 7L18 5ZM9 6L9 7L10 7L10 6ZM20 6L20 8L22 8L22 7L21 7L21 6ZM13 8L13 9L12 9L12 10L13 10L13 11L14 11L14 10L13 10L13 9L14 9L14 8ZM15 8L15 9L16 9L16 8ZM17 8L17 9L18 9L18 8ZM25 8L25 9L26 9L26 10L27 10L27 9L28 9L28 8L27 8L27 9L26 9L26 8ZM10 9L10 11L11 11L11 9ZM8 10L8 12L9 12L9 10ZM19 10L19 11L20 11L20 10ZM20 13L20 14L22 14L22 13ZM31 13L31 14L32 14L32 13ZM1 14L1 15L2 15L2 14ZM8 14L8 15L6 15L6 16L11 16L11 15L9 15L9 14ZM21 15L21 16L22 16L22 15ZM31 15L31 16L30 16L30 17L31 17L31 18L32 18L32 17L31 17L31 16L32 16L32 15ZM4 17L4 20L3 20L3 21L2 21L2 22L3 22L3 21L4 21L4 20L5 20L5 21L6 21L6 22L7 22L7 21L10 21L10 20L7 20L7 19L8 19L8 18L7 18L7 17ZM17 17L17 18L18 18L18 17ZM5 18L5 20L6 20L6 21L7 21L7 20L6 20L6 19L7 19L7 18ZM16 19L16 20L15 20L15 22L16 22L16 23L17 23L17 24L18 24L18 23L19 23L19 25L21 25L21 24L20 24L20 22L16 22L16 21L17 21L17 20L18 20L18 19ZM25 21L25 23L26 23L26 24L28 24L28 23L29 23L29 28L30 28L30 27L31 27L31 26L30 26L30 25L32 25L32 24L30 24L30 23L29 23L29 21L27 21L27 22L26 22L26 21ZM32 21L32 22L33 22L33 21ZM11 22L11 25L12 25L12 26L13 26L13 24L12 24L12 23L13 23L13 22ZM27 22L27 23L28 23L28 22ZM23 24L23 25L22 25L22 26L19 26L19 28L18 28L18 29L19 29L19 28L20 28L20 29L22 29L22 31L23 31L23 29L24 29L24 27L23 27L23 26L24 26L24 24ZM17 25L17 26L18 26L18 25ZM25 25L25 28L28 28L28 25ZM26 26L26 27L27 27L27 26ZM20 27L20 28L22 28L22 29L23 29L23 28L22 28L22 27ZM9 28L9 30L11 30L11 31L10 31L10 32L11 32L11 31L12 31L12 30L11 30L11 29L10 29L10 28ZM26 29L26 30L27 30L27 29ZM31 30L31 31L30 31L30 32L31 32L31 33L32 33L32 32L31 32L31 31L32 31L32 30ZM0 0L0 7L7 7L7 0ZM1 1L1 6L6 6L6 1ZM2 2L2 5L5 5L5 2ZM26 0L26 7L33 7L33 0ZM27 1L27 6L32 6L32 1ZM28 2L28 5L31 5L31 2ZM0 26L0 33L7 33L7 26ZM1 27L1 32L6 32L6 27ZM2 28L2 31L5 31L5 28Z" fill="#000000"/></g></g></svg>
